<svg width="604" height="346" viewBox="0 0 604 346" fill="none" xmlns="http://www.w3.org/2000/svg">
<g clip-path="url(#clip0_6_173)">
<path d="M244.89 260.16L238.724 260.637C239.666 259.431 239.753 256.841 240.059 255.28C241.108 249.953 240.773 244.709 238.457 239.997L241.321 208.195C241.588 203.089 240.03 198.269 237.404 194.138C240.982 185.231 238.457 181.164 231.423 176.112C229.908 175.009 229.185 173.108 228.796 171.262C227.539 165.408 224.548 162.581 218.8 161.577C216.378 161.144 213.858 161.385 211.514 162.163C206.877 163.694 204.547 165.26 203.071 169.578C202.532 171.114 202.469 172.842 203.673 173.901C204.29 174.433 204.513 174.689 205.319 174.718C205.489 174.866 205.547 175.073 205.717 175.073C205.858 175.536 205.999 175.994 206.149 176.447C206.198 176.604 206.241 176.767 206.295 176.919C205.173 180.523 204.465 183.379 207.363 183.276C207.858 183.256 208.445 183.168 209.164 182.966C209.169 182.976 209.178 182.99 209.183 183C209.795 184.019 210.577 185.167 211.378 186.245C211.431 186.319 211.48 186.397 211.538 186.471C211.567 186.511 211.611 186.53 211.645 186.57C211.829 186.796 212.033 187.003 212.266 187.156C213.091 187.697 214.155 187.796 215.087 187.358L215.363 187.23L215.752 187.057L216.014 188.608L216.232 189.903L216.494 191.454L210.863 203.291C209.844 205.122 209.402 207.245 209.591 209.347L208.844 211.523L208.839 211.528L200.265 218.658C200.168 218.737 200.052 218.771 199.945 218.825C199.828 218.884 199.717 218.948 199.586 218.978C199.391 219.027 199.188 219.047 198.984 219.017L187.896 217.407L178.385 216.024C177.259 215.861 176.108 215.886 174.982 216.092L159.141 219.027L158.044 219.229C157.69 219.293 157.379 219.475 157.151 219.731C156.918 219.982 156.767 220.312 156.733 220.681L156.597 222.08C156.583 222.232 156.593 222.375 156.617 222.518C156.641 222.641 156.685 222.759 156.733 222.872C156.738 222.887 156.743 222.907 156.748 222.922C156.869 223.178 157.054 223.399 157.282 223.562L139.897 224.483L128.028 197.958C127.984 197.85 127.877 197.766 127.761 197.766L122.819 197.678C122.605 197.678 122.459 197.904 122.537 198.111L138.3 231.656L118.377 231.799C116.221 231.799 114.464 233.577 114.464 235.763V238.033C114.464 240.219 116.221 241.996 118.377 241.996L147.393 242.351L146.708 330.628C143.223 331.958 140.791 334.385 140.791 338.393L162.365 337.856C162.365 337.841 162.365 337.841 162.365 337.827L168.977 338.161C169.205 338.161 169.424 338.068 169.584 337.901L175.337 332.632C175.521 332.455 175.832 332.578 175.832 332.849L175.982 337.679C175.982 338.058 176.288 338.354 176.652 338.354L181.536 338.068C181.895 338.068 182.191 337.772 182.191 337.388V336.507L195.056 336.596C195.872 336.596 196.663 336.295 197.294 335.754L202.654 331.485C202.751 331.391 202.911 331.47 202.911 331.608L203.032 336.143C203.032 336.428 203.261 336.66 203.542 336.66L205.45 336.256C205.785 336.256 206.081 336.029 206.178 335.7C207.877 329.712 207.45 325.448 204.848 320.589C205.28 310.278 205.008 296.098 200.979 284.404L201.668 284.66H201.663L202.494 284.966C202.945 285.153 203.469 285.03 203.79 284.65L212.305 272.843C212.722 272.371 215.451 270.495 215.931 270.101L216.451 329.747C213.247 330.904 210.902 332.603 210.902 336.241L228.651 336.734C228.651 333.095 226.461 330.904 223.243 329.747L224.306 269.825L244.652 270.209C246.419 270.209 247.865 268.742 247.865 266.95L248.103 263.434C248.103 261.627 246.657 260.16 244.89 260.16ZM192.687 322.233C192.682 322.243 192.682 322.248 192.677 322.258C192.634 322.381 192.575 322.504 192.517 322.622C192.493 322.667 192.478 322.711 192.459 322.75C192.44 322.785 192.42 322.814 192.401 322.844C192.328 322.977 192.25 323.11 192.158 323.233C192.109 323.302 192.046 323.366 191.993 323.43C191.973 323.454 191.954 323.479 191.93 323.504C191.886 323.563 191.842 323.622 191.789 323.676C191.653 323.814 191.507 323.942 191.352 324.065L184.832 329.077L182.22 332.361L182.551 323.444L182.56 323.44C183.153 322.1 183.706 320.736 184.25 319.363C184.546 318.629 184.818 317.881 185.099 317.132C185.624 315.719 186.133 314.301 186.619 312.863C186.959 311.839 187.284 310.8 187.604 309.766C187.726 309.377 187.857 308.998 187.973 308.609C188.415 307.167 188.833 305.709 189.226 304.242L190.784 311.022L192.182 317.093L192.833 319.914C192.833 319.929 192.838 319.949 192.838 319.963V319.968C192.842 319.993 192.842 320.013 192.847 320.032C192.998 320.786 192.94 321.544 192.687 322.233ZM175.516 260.613C175.162 260.775 174.817 260.967 174.492 261.179C174.22 261.351 173.963 261.538 173.715 261.74C173.589 261.844 173.477 261.957 173.361 262.065C173.225 262.188 173.089 262.307 172.963 262.439C172.851 262.553 172.749 262.676 172.642 262.799C172.526 262.937 172.409 263.075 172.297 263.217C172.2 263.345 172.113 263.473 172.026 263.606C171.919 263.759 171.822 263.917 171.725 264.079C171.647 264.212 171.574 264.34 171.506 264.478C171.414 264.655 171.331 264.837 171.249 265.02C171.195 265.152 171.137 265.276 171.089 265.409C171.006 265.62 170.943 265.842 170.88 266.058C170.846 266.172 170.807 266.285 170.778 266.398C170.695 266.733 170.627 267.078 170.589 267.427L170.064 271.804C170.021 272.139 170.137 272.459 170.346 272.701C170.36 272.72 170.37 272.74 170.39 272.755C170.496 272.873 170.623 272.976 170.773 273.04L175.803 274.926L176.497 275.187L175.555 281.992L170.181 320.874C170.098 321.48 169.822 322.026 169.419 322.465C169.239 322.662 169.04 322.839 168.807 322.977L157.763 329.767L156.996 330.451L156.981 330.466C156.884 330.421 155.986 330.338 155.894 330.298L155.165 242.562L184.628 243.222C186.798 243.222 188.551 241.44 188.551 239.254L188.347 235.384C188.347 233.197 186.59 231.42 184.42 231.42L177.308 231.587L179.031 225.817L182.905 227.21L193.415 230.997C194.896 231.533 196.45 231.839 198.022 231.907L202.032 232.08C204.368 232.183 206.664 231.479 208.552 230.086L209.504 229.382L210.382 228.737L211.31 239.081L211.402 240.13L175.516 260.613ZM411.997 135.86C412.653 136.707 412.784 137.85 412.327 138.82L410.327 143.118L410.041 143.733C409.546 144.797 408.716 145.664 407.682 146.195L399.264 150.538L399.074 151.508C399.162 151.646 399.128 151.833 398.997 151.936L377.325 165.792C375.971 166.801 374.393 167.456 372.728 167.707L369.135 168.244C366.543 168.633 363.902 168.007 361.751 166.496L355.775 162.877L355.12 216.565L361.756 330.298C361.766 330.559 361.562 330.776 361.305 330.776L359.979 331.106L371.053 335.089C372.305 335.542 373.145 336.743 373.145 338.097L373.053 339.762C373.053 340.284 372.636 340.712 372.116 340.712L356.178 340.653C355.911 340.653 355.659 340.54 355.479 340.338L352.989 337.654C352.799 337.443 352.479 337.443 352.29 337.649L350.304 340.106C350.124 340.303 349.872 340.417 349.61 340.417L343.711 340.249C343.27 340.249 342.872 339.934 342.784 339.491C342.158 336.404 342.274 333.848 343.007 330.761H341.595C341.357 330.761 341.158 330.569 341.143 330.323L336.245 227.708C336.23 227.368 335.978 227.082 335.643 227.038L333.9 227.013C333.502 226.959 333.143 227.25 333.109 227.653L325.56 330.564C325.545 330.741 325.404 330.874 325.23 330.874H324.016L332.861 335.734C333.949 336.266 334.274 336.655 334.274 337.881L334.221 339.614C334.221 340.141 333.803 340.564 333.284 340.564L318.37 340.426C318.088 340.426 317.821 340.298 317.647 340.077L315.68 337.777C315.496 337.546 315.146 337.541 314.957 337.773L312.607 339.87C312.428 340.087 312.166 340.21 311.889 340.21L307.345 340.559C306.85 340.559 306.432 340.165 306.403 339.668C306.214 336.482 306.816 333.139 307.733 330.269H307.209C307.015 330.269 306.864 330.106 306.874 329.909L315.214 216.206L316.098 204.93L306.874 188.465C305.447 185.826 304.694 182.857 304.694 179.844V174.787C304.694 172.951 304.976 171.124 305.52 169.371L314.831 144.812C318.355 138.632 319.399 132.345 325.375 127.913L325.38 127.918L326.167 124.487H326.157C316.812 118.622 317.04 109.134 322.356 105.161C323.026 104.664 323.603 104.043 323.948 103.28C328.186 93.9053 340.939 93.4474 344.313 101.025L344.318 101.03V101.04C344.935 102.423 346.09 103.536 345.813 105.451L345.818 105.481H345.813C345.813 105.481 345.813 105.481 345.813 105.486C346.362 106.943 346.809 108.42 347.129 109.912C347.192 110.193 347.352 110.434 347.576 110.607C350.916 113.137 351.94 117.239 347.794 117.854C347.794 117.977 347.785 118.1 347.785 118.209C347.717 119.863 347.119 120.823 346.784 122.394C346.624 123.157 345.993 123.728 345.221 123.792L343.168 124.418L343.799 130.336H343.809L356.557 142.36L370.067 152.906C370.276 153.074 370.568 153.088 370.796 152.951L390.744 139.115C390.889 139.026 391.074 139.071 391.166 139.213L392.307 139.691L397.919 133.206C398.045 133.059 398.191 132.936 398.331 132.808L387.544 122.926C387.01 122.463 387.02 122.197 387.481 121.66L387.569 121.557C388.025 121.015 388.336 121.094 388.87 121.557L400.924 131.483C400.972 131.478 401.016 131.459 401.06 131.454L406.128 130.641C407.128 130.479 408.133 130.882 408.759 131.685L410.954 134.516L411.959 135.811L411.997 135.86ZM567.197 145.334C567.051 145.142 566.92 144.95 566.755 144.777C566.556 144.556 566.342 144.354 566.138 144.137L566.129 144.122C563.114 140.947 559.604 137.943 555.463 135.146L553.958 129.322L554.016 129.307C561.221 124.418 558.866 117.234 552.9 120.031C552.686 121.321 551.856 122.433 550.72 123.467C550.531 123.63 550.22 123.522 550.181 123.261L549.472 118.864C545.758 117.46 541.511 115.437 537.452 112.817C536.811 114.324 536.326 115.89 536.005 117.529C533.806 104.452 547.059 102.916 554.04 105.88C560.191 108.484 564.104 114.447 562.857 122.635C562.575 124.565 563.153 126.495 564.371 127.987C569.532 134.29 570.711 139.735 567.197 145.334Z" fill="#AB1D09"/>
<mask id="mask0_6_173" style="mask-type:luminance" maskUnits="userSpaceOnUse" x="2" y="51" width="568" height="295">
<path d="M2.48559 51.9945H569.202V345.532H2.48559V51.9945Z" fill="white"/>
</mask>
<g mask="url(#mask0_6_173)">
<path d="M566.517 164.876L568.216 155.289C568.726 152.448 567.978 150.371 566.624 147.83C566.235 147.096 565.75 146.407 565.216 145.767C565.566 145.225 565.871 144.679 566.138 144.137L566.129 144.122C563.114 140.947 559.604 137.943 555.463 135.146L553.958 129.322L554.016 129.307C561.221 124.418 558.866 117.234 552.9 120.031C552.686 121.321 551.856 122.433 550.72 123.467C550.531 123.63 550.22 123.522 550.181 123.261L549.472 118.864C545.758 117.46 541.511 115.437 537.452 112.817C536.811 114.324 536.326 115.89 536.005 117.529V117.544C533.728 119.459 532.67 121.005 532.627 122.271C532.602 123.531 533.593 124.496 535.471 125.23C535.534 126.82 535.695 128.421 535.923 130.011C536.098 131.207 537.049 132.118 538.229 132.197L541.457 132.429L540.778 138.908L540.384 139.002L535.403 148.849L530.403 158.721L528.864 162.473C528.777 162.685 528.718 162.906 528.641 163.123C528.418 163.729 528.214 164.344 528.053 164.969C527.879 165.61 527.743 166.259 527.646 166.914L527.136 170.43L518.519 167.973C518.446 167.953 518.373 167.963 518.31 167.988C518.194 168.022 518.087 168.086 518.038 168.204L517.601 169.071L517.407 169.45L516.844 169.1L515.412 168.204L509.931 164.792C509.712 164.659 509.484 164.546 509.251 164.443C509.081 164.364 508.907 164.295 508.732 164.231C508.727 164.231 508.727 164.231 508.727 164.231C508.343 164.093 507.95 163.99 507.552 163.926C507.494 163.916 507.44 163.906 507.387 163.896C506.974 163.842 506.557 163.807 506.139 163.832L503.309 164.004L501.785 164.098C501.542 164.113 501.299 164.147 501.056 164.196C500.857 164.236 500.663 164.275 500.469 164.334C499.746 164.521 499.052 164.837 498.435 165.285L493.532 168.761H493.527L488.167 165.866C487.847 165.649 487.42 165.649 487.094 165.866L479.162 171.804L478.094 172.616C477.487 173.01 477.487 173.906 478.094 174.3L494.993 186.452L494.988 186.447L494.998 186.452L495.134 186.752L495.338 187.22L495.474 187.5C495.571 187.727 495.692 187.944 495.833 188.14C495.969 188.342 496.119 188.529 496.289 188.707L498.687 191.188L503.197 196.21C504.212 197.338 505.605 198.032 507.105 198.155L509.824 198.372L510.411 198.421L513.572 198.682C513.654 198.682 513.747 198.707 513.829 198.722C513.902 198.731 513.97 198.736 514.043 198.746C514.086 198.751 514.13 198.756 514.174 198.766L515.698 199.091L517.873 199.564L522.136 200.474H522.14L522.631 200.716C522.699 201.07 523.019 201.316 523.383 201.262L532.656 199.632L520.155 245.522C519.334 248.348 518.825 251.253 518.611 254.187L516.883 266.63C516.829 267.28 517.325 267.836 517.97 267.851L519.902 268.771L519.912 268.776C519.912 269.421 519.941 270.066 519.985 270.711C520.029 271.297 520.126 271.878 520.203 272.464C520.373 273.695 520.601 274.921 520.956 276.123L534.156 321.47C534.733 323.44 534.073 325.572 532.51 326.876L526.034 332.199L522.271 335.921C521.883 336.231 521.669 336.694 521.669 337.196L521.495 340.594C521.495 341.505 521.907 342.13 522.805 342.13L535.549 341.49L535.695 344.247C535.695 344.656 536.02 344.981 536.418 344.981L555.099 344.232C555.235 344.232 555.366 344.164 555.448 344.055L560.74 338.871L560.997 343.947C560.997 344.193 561.196 344.395 561.439 344.395L565.405 344.326C565.633 344.326 565.818 344.154 565.847 343.922C565.9 343.484 565.939 343.051 565.993 342.617C566.784 335.296 567.104 331.495 564.347 325.951C564.065 325.394 564.371 324.257 564.454 323.617C564.371 323.139 564.371 322.667 564.41 322.189C564.731 318.856 564.998 315.507 565.211 312.169C565.221 312.051 565.231 311.928 565.235 311.81C565.24 311.746 565.245 311.682 565.25 311.618C566.192 296.709 566.095 282.07 564.774 269.983L566.862 269.303C567.493 269.333 568.003 268.831 568.017 268.19L567.76 228.259C567.935 221.006 567.172 214.148 565.376 207.126L562.391 194.467L566.085 166.599C566.26 166.028 566.41 165.462 566.517 164.876ZM500.362 173.35L496.959 171.055C497.144 171.006 497.343 170.922 497.537 170.848C497.673 170.799 497.809 170.77 497.945 170.706C497.983 170.691 498.022 170.686 498.061 170.666C498.095 170.651 498.134 170.642 498.173 170.627C498.357 170.568 498.547 170.518 498.736 170.469C498.765 170.464 498.794 170.454 498.823 170.45C499.1 170.386 499.382 170.361 499.668 170.351C499.848 170.346 500.032 170.322 500.212 170.336L500.746 170.39L502.008 170.523L504.984 170.824C505.052 170.824 505.066 170.917 505.013 170.947L504.115 171.41L500.362 173.35ZM520.514 186.496C520.14 186.565 519.897 186.934 519.965 187.313L519.844 188.446L519.839 188.451L518.184 188.638L516.402 188.835L517.422 186.265C517.674 185.816 517.538 185.235 517.111 184.95L504.571 176.191C504.756 176.2 504.96 176.215 505.144 176.245C505.164 176.245 505.183 176.25 505.202 176.255C505.314 176.269 505.421 176.289 505.528 176.319L512.999 178.392L512.994 178.416V178.411L512.839 179.233C512.742 179.421 512.795 179.652 512.97 179.775L521.388 185.871L520.514 186.496ZM549.822 323.139H548.987C548.399 322.667 548.225 321.618 547.904 320.938C547.637 320.372 547.477 319.757 547.424 319.107C546.123 301.288 543.375 284.065 539.608 273.976C539.088 272.548 539.059 271.002 539.569 269.574L539.666 269.303L542.899 269.387H542.884L545.37 269.451V269.456H545.365L549.827 323.139H549.817H549.822ZM138.009 52.6642C111.119 52.6642 91.1272 72.3689 91.1272 99.6267C91.1272 110.247 94.5789 119.725 100.235 127.805L94.375 133.408L84.9957 142.837L82.6606 139.455C80.544 136.806 77.8399 134.713 74.7427 133.369L61.0573 126.289L61.033 126.279L60.334 122.827L62.2516 122.286C62.9215 122.094 63.4555 121.646 63.7953 121.074C63.8342 121.015 63.873 120.961 63.9021 120.902C63.9119 120.887 63.9119 120.868 63.9216 120.853C64.106 120.474 64.2031 120.045 64.1983 119.597C64.1789 118.755 64.1303 117.923 64.0526 117.096C63.9992 116.461 63.9313 115.831 63.8488 115.21C63.8342 115.141 63.8488 115.077 63.8682 115.018C63.8779 114.994 63.8827 114.974 63.8973 114.949C63.9264 114.895 63.9653 114.841 64.0187 114.802C67.5335 112.207 66.378 109.272 61.7709 107.588C61.4748 106.874 61.1544 106.175 60.8049 105.491C60.6738 105.23 60.5184 104.984 60.3777 104.728C60.1495 104.314 59.9262 103.891 59.6786 103.487C59.6786 103.472 59.6786 103.472 59.6786 103.462C58.3484 92.2657 42.8862 91.9457 38.6238 103.462C38.4393 103.979 38.1578 104.452 37.7937 104.861C32.7011 110.557 34.5168 115.909 38.8471 118.485C39.2355 118.711 39.6385 118.918 40.0657 119.105C40.1142 119.125 40.1628 119.149 40.2113 119.169C40.6531 119.351 41.1046 119.519 41.5755 119.651V119.647L41.59 119.637C41.59 119.637 41.59 119.637 41.59 119.642C42.3134 120.484 43.3717 121.252 44.8427 121.813L44.5077 123.226L43.7455 126.412L36.3858 131.715L33.5021 132.975C28.963 134.959 26.4337 138.652 24.254 143.147L9.15105 173.473C8.23837 175.309 8.22866 177.481 9.11222 179.327L11.6027 186.22C12.8115 188.746 15.4524 190.228 18.1953 189.928L31.8224 188.593L30.7689 194.714L3.36427 219.574C2.72345 220.184 2.69433 221.203 3.2866 221.853L10.0346 230.514C10.6366 231.169 11.6415 231.194 12.2872 230.583L17.2438 225.886L24.7297 218.697L33.0652 221.223L18.2924 325.178C18.2827 325.261 18.3361 325.34 18.4283 325.355L19.3653 325.463L7.48104 334.434C6.59749 335.02 6.07804 335.995 6.07804 337.054L6.15571 337.832C6.15571 338.009 6.30135 338.171 6.49069 338.171L18.3313 337.925C18.7196 337.925 19.108 337.807 19.4284 337.576L26.2298 333.469C26.3124 333.415 26.4192 333.454 26.4483 333.538L27.2687 336.611C27.3464 336.871 27.5891 337.049 27.8561 337.049L32.1331 336.675C32.4681 336.675 32.74 336.404 32.74 336.064C33.3953 333.824 32.4244 331.367 32.0069 327.388L33.0798 327.507C33.1623 327.521 33.2303 327.467 33.24 327.388L51.5276 224.079C51.5421 224 51.581 223.946 51.6489 223.902L55.256 222.291C55.4162 222.213 55.6201 222.306 55.6298 222.483L67.3732 326.65C67.383 326.758 67.48 326.842 67.6014 326.842L68.417 326.748L67.8636 337.733C67.8636 338.019 68.0869 338.26 68.383 338.26L71.2716 338.147C71.4997 338.147 71.6988 337.999 71.7667 337.792L72.5726 335.419C72.626 335.227 72.8542 335.143 73.0144 335.266L79.7527 340.092C79.9032 340.205 80.0779 340.259 80.2624 340.259L95.0109 340.638C95.4916 340.638 95.8799 340.244 95.8799 339.757L95.8605 338.654C95.8605 337.457 95.3119 336.33 94.3604 335.611L82.2286 326.015L83.1413 325.916C83.2481 325.906 83.3403 325.808 83.3257 325.7L76.6263 220.484L84.1316 217.899C84.3889 217.806 84.5345 217.535 84.4811 217.264L77.1069 184.645C76.3059 181.07 76.2039 176.304 76.4758 172.65L76.6894 169.854L78.7138 169.036L78.8934 169.918L78.908 169.997C78.9856 170.39 79.1653 170.755 79.4177 171.055C79.4177 171.06 79.4177 171.06 79.4226 171.065C79.675 171.37 80.0051 171.612 80.3838 171.759L83.583 173.01C83.7432 173.074 83.918 173.103 84.0879 173.118C84.2141 173.133 84.3452 173.143 84.4714 173.138L87.8309 177.614C88.2192 178.254 88.8892 178.662 89.6271 178.726L92.2244 178.909C93.6711 179.032 95.1032 178.623 96.2974 177.796L98.3995 176.299C99.686 175.388 100.089 174.433 100.438 172.902L101.147 169.79C101.574 167.943 101.502 166.698 100.579 165.058L96.2246 157.284L95.0595 154.689L95.0546 154.674L95.1226 153.468L103.856 143.827L109.575 138.938C117.585 144.792 127.401 147.278 138.014 147.278C164.894 147.278 184.677 127.49 184.677 100.247C184.677 72.9844 164.889 52.6642 138.009 52.6642ZM138.009 137.638C118.512 137.638 100.133 118.883 100.133 99.1195C100.133 79.3459 118.284 61.6697 137.781 61.6697C157.277 61.6697 175.434 79.3212 175.434 99.0998C175.434 118.859 157.505 137.638 138.009 137.638Z" fill="#EB8526"/>
</g>
<mask id="mask1_6_173" style="mask-type:luminance" maskUnits="userSpaceOnUse" x="45" y="0" width="559" height="253">
<path d="M45.9835 0.477539H604V252.41H45.9835V0.477539Z" fill="white"/>
</mask>
<g mask="url(#mask1_6_173)">
<path d="M211.295 238.919L211.402 240.13L191.736 251.351H156.641V243.749H185.745C187.91 243.749 189.663 241.971 189.663 239.775V234.714C189.663 232.518 187.91 230.74 185.745 230.74H179.031V225.817L182.905 227.21L193.415 230.996C194.896 231.533 196.45 231.838 198.022 231.907L202.032 232.08C204.367 232.183 206.664 231.479 208.552 230.086L209.504 229.382L210.382 228.737L211.295 238.919ZM256.453 1.34411V250.485C256.453 250.962 256.07 251.351 255.594 251.351H242.904C243.195 247.442 242.676 243.675 240.943 240.13L242.559 208.032C242.821 202.926 241.472 197.953 238.845 193.813C242.414 184.906 239.472 180.834 232.442 175.782C230.923 174.689 230.204 172.773 229.811 170.927C229.719 170.499 229.573 170.1 229.447 169.691H238.02C238.574 169.691 239.025 169.263 239.02 168.736L238.879 113.91C238.879 113.383 238.428 112.955 237.875 112.955H184.958C186.133 108.711 186.774 104.245 186.774 99.6266C186.774 98.0215 186.692 96.436 186.546 94.8703H237.947C238.501 94.8703 238.952 94.4173 238.952 93.8511C238.952 93.2898 238.501 92.8368 237.947 92.8368H186.303C185.201 84.752 182.167 77.2926 177.686 70.9459H237.947C238.501 70.9459 238.952 70.488 238.952 69.9267C238.952 69.3654 238.501 68.9075 237.947 68.9075H176.172C167.229 57.5189 153.452 50.2022 138.009 50.2022C122.571 50.2022 108.793 57.5189 99.8511 68.9075H66.3344C65.7761 68.9075 65.3294 69.3654 65.3294 69.9267C65.3294 70.488 65.7761 70.9459 66.3344 70.9459H98.3316C92.6225 79.0405 89.2485 88.9372 89.2485 99.6266C89.2485 110.257 92.5836 120.104 98.2393 128.174L93.5109 132.66L84.9958 140.745L83.3209 138.647C81.2042 136.003 78.4856 133.915 75.4029 132.566L61.0573 126.289L61.033 126.279L60.334 122.827L62.2516 122.286C62.9215 122.094 63.4555 121.645 63.7954 121.074C63.8342 121.015 63.873 120.961 63.9022 120.902C63.9119 120.887 63.9119 120.868 63.9216 120.853C64.1061 120.474 64.2031 120.045 64.1983 119.597C64.1789 118.755 64.1303 117.923 64.0527 117.096C63.9993 116.461 63.9313 115.831 63.8488 115.21C63.8342 115.141 63.8488 115.077 63.8682 115.018C63.8779 114.994 63.8827 114.974 63.8973 114.949C63.9264 114.895 63.9653 114.841 64.0187 114.802C67.5335 112.207 66.378 109.272 61.771 107.588C61.1787 106.165 60.4845 104.792 59.6786 103.487C59.698 96.1455 52.5616 93.1273 46.1437 94.6733V1.34411C46.1437 0.866514 46.5273 0.477539 46.9982 0.477539H255.594C256.07 0.477539 256.453 0.866514 256.453 1.34411ZM91.802 22.073C91.802 22.6343 92.2535 23.0922 92.8069 23.0922H211.052C211.606 23.0922 212.057 22.6343 212.057 22.073C212.057 21.5117 211.606 21.0538 211.052 21.0538H92.8069C92.2535 21.0538 91.802 21.5117 91.802 22.073ZM238.952 45.9974C238.952 45.4361 238.501 44.9831 237.947 44.9831H66.3344C65.7761 44.9831 65.3294 45.4361 65.3294 45.9974C65.3294 46.5636 65.7761 47.0166 66.3344 47.0166H237.947C238.501 47.0166 238.952 46.5636 238.952 45.9974ZM216.014 188.608H157.272C156.714 188.608 156.267 188.15 156.267 187.589C156.267 187.028 156.714 186.57 157.272 186.57H211.645C211.611 186.53 211.567 186.511 211.538 186.471C211.48 186.397 211.431 186.319 211.378 186.245C210.577 185.166 209.795 184.019 209.183 183C209.178 182.99 209.169 182.975 209.164 182.966C208.445 183.167 207.858 183.256 207.363 183.276C204.465 183.379 205.173 180.523 206.295 176.919C206.241 176.767 206.198 176.604 206.149 176.447C205.999 175.994 205.858 175.536 205.717 175.073C205.547 175.073 205.382 175.068 205.222 175.048C204.416 175.014 203.673 174.674 203.062 174.137C201.848 173.074 201.503 171.282 202.032 169.745C202.037 169.726 202.047 169.711 202.052 169.691H137.873C137.32 169.691 136.868 169.263 136.868 168.736L136.815 149.026C126.668 148.78 117.284 145.373 109.575 139.74L104.502 144.556L95.1663 153.418L95.1226 153.468L95.0546 154.674L95.0595 154.689L96.6179 156.85L101.055 164.669C101.987 166.314 102.269 168.258 101.846 170.105L101.138 173.217C100.783 174.753 99.8851 176.102 98.6083 177.003L96.5013 178.49C95.3119 179.332 93.8701 179.731 92.4234 179.617L89.3892 179.376C88.6513 179.317 87.9862 178.908 87.593 178.268L84.4714 173.138C84.3452 173.143 84.2141 173.133 84.0879 173.118C83.918 173.103 83.7432 173.074 83.583 173.01L80.3838 171.759C80.0051 171.611 79.675 171.37 79.4226 171.065C79.4177 171.06 79.4177 171.06 79.4177 171.055C79.1653 170.755 78.9857 170.39 78.908 169.996L78.8934 169.918L78.7138 169.036L78.7041 169.041L77.4273 170.253L77.2234 173.049C76.9515 176.708 77.2283 180.39 78.0438 183.97L85.7531 217.919C85.8113 218.185 85.6657 218.456 85.4133 218.549L78.3303 221.144L80.1314 251.351H145.951V243.749H116.847C114.682 243.749 112.93 241.971 112.93 239.775V234.714C112.93 232.518 114.682 230.74 116.847 230.74H135.509L120.988 197.259C120.901 197.052 121.047 196.826 121.27 196.826H128.639C128.761 196.826 128.872 196.895 128.921 197.008L140.844 223.557H157.277C156.826 223.232 156.544 222.675 156.597 222.08L156.733 220.681C156.767 220.312 156.918 219.982 157.151 219.731C157.379 219.475 157.69 219.293 158.044 219.229L159.141 219.027L174.982 216.092C176.108 215.886 177.259 215.861 178.385 216.023L187.896 217.407L198.984 219.017C199.188 219.047 199.391 219.027 199.586 218.978C199.717 218.948 199.828 218.884 199.945 218.825C200.052 218.771 200.168 218.736 200.265 218.658L208.839 211.528L208.644 209.406C208.615 209.037 208.625 208.672 208.63 208.308H157.272C156.714 208.308 156.267 207.85 156.267 207.289C156.267 206.723 156.714 206.27 157.272 206.27H208.834C209.047 205.25 209.412 204.266 209.921 203.345L216.494 191.454L216.232 189.903L216.014 188.608ZM236.874 114.866H184.39C178.118 134.432 160.112 148.677 138.824 149.031L138.873 167.781H202.882C204.537 164.526 207.261 162.207 211.154 160.917C213.494 160.144 216.014 159.913 218.441 160.336C223.063 161.149 226.767 163.758 228.704 167.781H237.01L236.874 114.866ZM54.2608 223.576L52.5665 224.566C52.5034 224.601 52.4548 224.665 52.4451 224.738L47.7749 251.351H57.6833L54.6346 223.773C54.6152 223.591 54.4161 223.488 54.2608 223.576ZM335.182 227.722L334.468 227.624C334.07 227.57 333.711 227.86 333.677 228.264L332.016 251.351H336.793L335.784 228.392C335.769 228.052 335.517 227.767 335.182 227.722ZM523.019 201.695L531.529 200.666L518.635 245.526C518.087 247.437 517.684 249.387 517.412 251.351H359.081L357.508 215.103V165.688L362.446 169.155C364.601 170.666 367.237 171.291 369.83 170.907L373.422 170.371C373.83 170.307 374.233 170.223 374.626 170.11C389.02 190.917 412.847 204.536 439.824 204.536C459.908 204.536 478.239 196.978 492.24 184.546L494.988 186.447L494.998 186.452L495.342 187.21L495.474 187.5C495.571 187.727 495.692 187.943 495.833 188.14C495.969 188.342 496.119 188.529 496.289 188.707L498.687 191.188L503.197 196.21C504.212 197.338 505.605 198.032 507.105 198.155L510.416 198.421L513.572 198.682C513.659 198.687 513.742 198.702 513.829 198.717C513.941 198.731 514.057 198.741 514.174 198.766L517.878 199.559L522.135 200.474H522.14L522.271 201.154C522.339 201.503 522.66 201.75 523.019 201.695ZM487.915 214.566C487.915 214.33 487.73 214.143 487.497 214.143H457.228C456.995 214.143 456.806 214.33 456.806 214.566V229.835C456.806 230.066 456.995 230.258 457.228 230.258H487.497C487.73 230.258 487.915 230.066 487.915 229.835V214.566ZM603.743 2.43226V249.396C603.743 250.475 602.879 251.351 601.815 251.351H569.284L569.876 227.954C570.056 220.696 569.236 213.448 567.439 206.422L564.279 194.088L567.624 167.077C567.799 166.51 567.954 165.939 568.056 165.353L569.76 155.767C570.26 152.921 569.964 149.937 568.604 147.397C568.216 146.658 567.731 145.974 567.197 145.324C570.716 139.73 569.527 134.295 564.371 127.992C563.148 126.495 562.57 124.56 562.861 122.64C564.099 114.447 560.196 108.479 554.04 105.87C547.059 102.916 533.792 104.452 536 117.544C533.728 119.454 532.665 121.01 532.631 122.266C532.597 123.531 533.597 124.496 535.471 125.23C535.534 126.82 535.695 128.421 535.923 130.011C536.098 131.207 537.049 132.118 538.229 132.197L541.457 132.428L540.777 138.903L540.384 139.002L535.403 148.849L535.093 149.455L530.398 158.726L528.864 162.473C528.777 162.685 528.718 162.906 528.641 163.123C528.189 164.349 527.84 165.619 527.646 166.914L527.136 170.43L518.519 167.973C518.397 167.938 518.276 167.983 518.179 168.057C518.121 168.096 518.062 168.135 518.033 168.199L517.737 168.8L517.407 169.45L515.412 168.209L509.931 164.792C509.547 164.561 509.144 164.383 508.732 164.231C515.519 152.35 519.427 138.568 519.427 123.851C519.427 79.2916 483.788 43.1662 439.824 43.1662C395.86 43.1662 360.222 79.2916 360.222 123.851C360.222 131.153 361.198 138.219 362.989 144.945L357.508 140.666L343.809 130.336H343.799L343.168 124.418L345.629 124.211C346.396 124.147 347.032 123.571 347.192 122.807C347.527 121.237 347.717 119.863 347.784 118.209C347.784 118.1 347.794 117.977 347.794 117.854C351.94 117.239 350.916 113.137 347.576 110.606C347.352 110.434 347.192 110.193 347.129 109.912C346.809 108.42 346.362 106.943 345.813 105.486C345.813 105.481 345.813 105.481 345.813 105.481H345.818L345.813 105.451C346.09 103.536 345.852 101.882 345.241 100.493L345.236 100.483C341.862 92.9008 327.172 93.3932 322.933 102.768C322.589 103.531 322.011 104.151 321.341 104.654C316.025 108.622 316.812 118.622 326.157 124.486H326.167L325.38 127.918L325.375 127.913C321.652 130.676 318.52 133.861 315.836 137.367C313.156 140.863 311.175 144.851 309.855 149.071L303.131 170.607C302.583 172.36 302.306 174.187 302.306 176.023V181.08C302.306 184.093 303.053 187.062 304.486 189.706L313.438 206.27L312.87 215.103L310.656 251.351H283.926C282.858 251.351 281.994 250.475 281.994 249.396V2.43226C281.994 1.34904 282.858 0.477539 283.926 0.477539H601.815C602.879 0.477539 603.743 1.34904 603.743 2.43226ZM367.014 46.2534C367.014 46.022 366.829 45.83 366.596 45.83H338.41V21.684H302.388V46.992H324.856V67.2482C324.856 67.4796 325.045 67.6716 325.273 67.6716H366.596C366.829 67.6716 367.014 67.4796 367.014 67.2482V46.2534ZM536.345 26.7752C536.345 26.5437 536.156 26.3517 535.923 26.3517H494.605C494.372 26.3517 494.187 26.5437 494.187 26.7752V47.7699C494.187 48.0013 494.372 48.1934 494.605 48.1934H535.923C536.156 48.1934 536.345 48.0013 536.345 47.7699V26.7752ZM597.49 48.1934C597.49 47.445 596.888 46.8344 596.15 46.8344H591.824L593.732 42.7428C594.048 42.0633 593.761 41.2558 593.091 40.9309C592.417 40.6157 591.625 40.9013 591.31 41.5808L588.654 47.2677L579.275 53.5159C575.765 48.8531 570.241 45.83 564.007 45.83C553.395 45.83 544.787 54.5499 544.787 65.3082C544.787 76.0666 553.395 84.7865 564.007 84.7865C574.619 84.7865 583.222 76.0666 583.222 65.3082C583.222 61.8419 582.324 58.5972 580.756 55.7759L590.106 49.5523H596.15C596.888 49.5523 597.49 48.9418 597.49 48.1934ZM476.642 110.301H490.604C490.604 107.406 488.881 104.925 486.424 103.831C487.478 102.985 488.167 101.695 488.167 100.227C488.167 97.6817 486.133 95.6187 483.623 95.6187C481.113 95.6187 479.074 97.6817 479.074 100.227C479.074 101.695 479.764 102.985 480.817 103.831C478.361 104.925 476.642 107.406 476.642 110.301ZM398.574 91.1627H412.536C412.536 88.2676 410.818 85.786 408.361 84.6929C409.415 83.851 410.104 82.556 410.104 81.0888C410.104 78.5432 408.065 76.4802 405.555 76.4802C403.045 76.4802 401.011 78.5432 401.011 81.0888C401.011 82.556 401.701 83.8461 402.754 84.6929C400.298 85.786 398.574 88.2676 398.574 91.1627ZM448.058 178.391C448.058 175.501 446.339 173.02 443.883 171.922C444.936 171.08 445.626 169.785 445.626 168.317C445.626 165.777 443.587 163.714 441.077 163.714C438.567 163.714 436.533 165.777 436.533 168.317C436.533 169.785 437.222 171.08 438.276 171.922C435.819 173.02 434.101 175.501 434.101 178.391H448.058ZM431.29 128.588H411.23C410.861 128.588 410.56 128.888 410.56 129.267C410.56 129.642 410.861 129.947 411.23 129.947H431.29C431.659 129.947 431.96 129.642 431.96 129.267C431.96 128.888 431.659 128.588 431.29 128.588ZM431.29 134.452H411.23C411.133 134.452 411.041 134.477 410.954 134.516L411.959 135.811H431.29C431.659 135.811 431.96 135.506 431.96 135.132C431.96 134.757 431.659 134.452 431.29 134.452ZM525.296 33.6585H505.236C504.863 33.6585 504.566 33.9638 504.566 34.338C504.566 34.7171 504.863 35.0175 505.236 35.0175H525.296C525.665 35.0175 525.966 34.7171 525.966 34.338C525.966 33.9638 525.665 33.6585 525.296 33.6585ZM525.296 39.5276H505.236C504.863 39.5276 504.566 39.8279 504.566 40.2071C504.566 40.5813 504.863 40.8866 505.236 40.8866H525.296C525.665 40.8866 525.966 40.5813 525.966 40.2071C525.966 39.8279 525.665 39.5276 525.296 39.5276ZM355.965 53.1368H335.905C335.536 53.1368 335.235 53.4421 335.235 53.8163C335.235 54.1954 335.536 54.4957 335.905 54.4957H355.965C356.338 54.4957 356.635 54.1954 356.635 53.8163C356.635 53.4421 356.338 53.1368 355.965 53.1368ZM355.965 59.0059H335.905C335.536 59.0059 335.235 59.3062 335.235 59.6853C335.235 60.0595 335.536 60.3648 335.905 60.3648H355.965C356.338 60.3648 356.635 60.0595 356.635 59.6853C356.635 59.3062 356.338 59.0059 355.965 59.0059ZM435.13 90.0106H449.937C450.306 90.0106 450.607 89.7053 450.607 89.3311C450.607 88.9569 450.306 88.6516 449.937 88.6516H435.13C434.761 88.6516 434.46 88.9569 434.46 89.3311C434.46 89.7053 434.761 90.0106 435.13 90.0106ZM435.13 94.3385H449.937C450.306 94.3385 450.607 94.0332 450.607 93.659C450.607 93.2848 450.306 92.9796 449.937 92.9796H435.13C434.761 92.9796 434.46 93.2848 434.46 93.659C434.46 94.0332 434.761 94.3385 435.13 94.3385ZM479.764 219.357H464.962C464.588 219.357 464.292 219.657 464.292 220.036C464.292 220.41 464.588 220.716 464.962 220.716H479.764C480.133 220.716 480.434 220.41 480.434 220.036C480.434 219.657 480.133 219.357 479.764 219.357ZM479.764 223.685H464.962C464.588 223.685 464.292 223.99 464.292 224.364C464.292 224.738 464.588 225.044 464.962 225.044H479.764C480.133 225.044 480.434 224.738 480.434 224.364C480.434 223.99 480.133 223.685 479.764 223.685ZM569.823 63.0581C570.09 63.7622 570.25 64.5155 570.25 65.3082C570.25 68.8041 567.454 71.6352 564.007 71.6352C560.56 71.6352 557.764 68.8041 557.764 65.3082C557.764 61.8124 560.56 58.9812 564.007 58.9812C565.701 58.9812 567.235 59.6706 568.362 60.7833L573.318 57.4795C571.1 54.7715 567.755 53.0432 564.007 53.0432C557.322 53.0432 551.904 58.5332 551.904 65.3082C551.904 72.0833 557.322 77.5732 564.007 77.5732C570.692 77.5732 576.11 72.0833 576.11 65.3082C576.11 63.3092 575.624 61.4234 574.784 59.7543L569.823 63.0581ZM119.809 68.9075H156.214C150.893 65.6578 144.665 63.7819 138.009 63.7819C131.358 63.7819 125.129 65.6578 119.809 68.9075ZM170.011 114.866H138.737L138.79 135.452C152.583 135.146 164.452 126.806 170.011 114.866ZM102.647 99.6266C102.647 118.972 117.847 134.782 136.781 135.442L136.727 113.91C136.727 113.383 137.174 112.955 137.727 112.955H170.831C172.467 108.829 173.375 104.334 173.375 99.6266C173.375 98.0116 173.259 96.4311 173.055 94.8703H119.702C119.148 94.8703 118.697 94.4173 118.697 93.8511C118.697 93.2898 119.148 92.8368 119.702 92.8368H172.73C171.04 83.9347 166.093 76.1946 159.2 70.9459H116.823C108.221 77.4895 102.647 87.9081 102.647 99.6266ZM387.292 121.311L387.204 121.414C386.748 121.956 386.806 122.768 387.34 123.236L398.331 132.808C398.87 132.305 399.497 131.926 400.181 131.685C400.424 131.601 400.671 131.532 400.924 131.483L400.181 130.838L389.088 121.173C388.554 120.71 387.748 120.774 387.292 121.311ZM504.557 170.779C504.406 170.991 504.265 171.203 504.115 171.41L505.013 170.947C505.066 170.917 505.052 170.824 504.984 170.824L504.557 170.779ZM512.994 178.416L512.999 178.391L505.528 176.319C505.401 176.284 505.27 176.259 505.144 176.24C504.955 176.215 504.765 176.195 504.576 176.191L517.553 184.92C517.985 185.206 518.116 185.792 517.863 186.24L516.407 188.825L516.402 188.835L518.184 188.638L519.839 188.451L519.553 186.934C519.485 186.55 519.723 186.186 520.101 186.117L521.378 185.871L512.63 179.987C512.45 179.869 512.392 179.637 512.484 179.445L512.994 178.416Z" fill="#7CD756"/>
</g>
<path d="M91.802 22.073C91.802 21.5117 92.2535 21.0538 92.8069 21.0538H211.052C211.606 21.0538 212.057 21.5117 212.057 22.073C212.057 22.6343 211.606 23.0923 211.052 23.0923H92.8069C92.2535 23.0923 91.802 22.6343 91.802 22.073ZM237.947 92.8368H186.303C186.395 93.5114 186.478 94.1859 186.546 94.8703H237.947C238.501 94.8703 238.952 94.4173 238.952 93.8511C238.952 93.2898 238.501 92.8368 237.947 92.8368ZM157.272 188.608H216.014L215.752 187.057L215.363 187.23L215.087 187.358C214.155 187.796 213.091 187.697 212.266 187.156C212.033 187.003 211.829 186.796 211.645 186.57H157.272C156.714 186.57 156.267 187.028 156.267 187.589C156.267 188.15 156.714 188.608 157.272 188.608ZM156.267 207.289C156.267 207.85 156.714 208.308 157.272 208.308H208.63C208.64 207.619 208.693 206.934 208.834 206.27H157.272C156.714 206.27 156.267 206.723 156.267 207.289ZM66.3344 47.0166H237.947C238.501 47.0166 238.952 46.5637 238.952 45.9974C238.952 45.4361 238.501 44.9831 237.947 44.9831H66.3344C65.7761 44.9831 65.3294 45.4361 65.3294 45.9974C65.3294 46.5637 65.7761 47.0166 66.3344 47.0166ZM66.3344 70.9459H98.3316C98.8219 70.2517 99.3268 69.5722 99.8511 68.9075H66.3344C65.7761 68.9075 65.3294 69.3654 65.3294 69.9267C65.3294 70.488 65.7761 70.9459 66.3344 70.9459ZM237.947 68.9075H176.172C176.691 69.5722 177.196 70.2517 177.686 70.9459H237.947C238.501 70.9459 238.952 70.488 238.952 69.9267C238.952 69.3654 238.501 68.9075 237.947 68.9075ZM229.447 169.691H238.02C238.574 169.691 239.025 169.263 239.02 168.736L238.879 113.91C238.879 113.384 238.428 112.955 237.875 112.955H184.958C184.779 113.595 184.594 114.235 184.39 114.866H236.874L237.01 167.781H228.704C228.995 168.386 229.243 169.022 229.447 169.691ZM137.873 169.691H202.052C202.285 169.017 202.571 168.386 202.882 167.781H138.873L138.824 149.031C138.553 149.036 138.286 149.051 138.009 149.051C137.611 149.051 137.213 149.036 136.815 149.026L136.868 168.736C136.868 169.263 137.32 169.691 137.873 169.691ZM483.623 117.288C475.817 117.288 469.486 110.872 469.486 102.96C469.486 95.0476 475.817 88.632 483.623 88.632C491.43 88.632 497.76 95.0476 497.76 102.96C497.76 110.872 491.43 117.288 483.623 117.288ZM476.642 110.301H490.604C490.604 107.406 488.881 104.925 486.424 103.831C487.478 102.985 488.167 101.695 488.167 100.227C488.167 97.6818 486.133 95.6187 483.623 95.6187C481.113 95.6187 479.074 97.6818 479.074 100.227C479.074 101.695 479.764 102.985 480.817 103.831C478.361 104.925 476.642 107.406 476.642 110.301ZM391.418 83.8215C391.418 75.9091 397.749 69.4934 405.555 69.4934C413.362 69.4934 419.692 75.9091 419.692 83.8215C419.692 91.7339 413.362 98.1495 405.555 98.1495C397.749 98.1495 391.418 91.7339 391.418 83.8215ZM398.574 91.1628H412.536C412.536 88.2676 410.818 85.786 408.361 84.693C409.415 83.851 410.104 82.5561 410.104 81.0888C410.104 78.5432 408.065 76.4802 405.555 76.4802C403.045 76.4802 401.011 78.5432 401.011 81.0888C401.011 82.5561 401.701 83.8461 402.754 84.693C400.298 85.786 398.574 88.2676 398.574 91.1628ZM455.214 171.05C455.214 178.968 448.883 185.378 441.077 185.378C433.271 185.378 426.94 178.968 426.94 171.05C426.94 163.138 433.271 156.727 441.077 156.727C448.883 156.727 455.214 163.138 455.214 171.05ZM448.058 178.391C448.058 175.501 446.339 173.02 443.883 171.922C444.936 171.08 445.626 169.785 445.626 168.318C445.626 165.777 443.587 163.714 441.077 163.714C438.567 163.714 436.533 165.777 436.533 168.318C436.533 169.785 437.222 171.08 438.276 171.922C435.819 173.02 434.101 175.501 434.101 178.391H448.058ZM468.297 86.4606C466.219 83.1912 462.146 76.2537 462.146 72.1276C462.146 68.0262 465.428 64.6977 469.491 64.6977C473.535 64.6977 476.817 68.0262 476.817 72.1276C476.817 76.0223 472.729 83.1125 470.661 86.4458C470.113 87.3272 468.855 87.337 468.297 86.4606ZM469.491 75.1311C471.069 75.1311 472.356 73.8263 472.356 72.2212C472.356 70.6062 471.069 69.3014 469.491 69.3014C467.894 69.3014 466.608 70.6062 466.608 72.2212C466.608 73.8263 467.894 75.1311 469.491 75.1311ZM473.589 150.563C473.589 154.364 469.686 161.198 467.574 164.62C466.952 165.624 465.525 165.629 464.899 164.635C462.777 161.272 458.903 154.575 458.903 150.563C458.903 146.446 462.2 143.118 466.248 143.118C470.292 143.118 473.589 146.446 473.589 150.563ZM469.127 150.641C469.127 149.041 467.826 147.736 466.248 147.736C464.651 147.736 463.365 149.041 463.365 150.641C463.365 152.256 464.651 153.561 466.248 153.561C467.826 153.561 469.127 152.256 469.127 150.641ZM412.327 138.819C412.784 137.85 412.653 136.707 411.997 135.86L411.959 135.811H431.29C431.659 135.811 431.96 135.506 431.96 135.132C431.96 134.757 431.659 134.452 431.29 134.452H411.23C411.133 134.452 411.041 134.477 410.954 134.516L408.759 131.685C408.133 130.882 407.128 130.479 406.128 130.641L401.06 131.454C401.016 131.459 400.972 131.478 400.924 131.483L400.181 130.838V122.069C400.181 121.636 400.531 121.276 400.963 121.276H441.558C441.99 121.276 442.339 121.636 442.339 122.069V142.325C442.339 142.763 441.99 143.118 441.558 143.118H410.327L412.327 138.819ZM431.96 129.267C431.96 128.888 431.659 128.588 431.29 128.588H411.23C410.861 128.588 410.56 128.888 410.56 129.267C410.56 129.642 410.861 129.947 411.23 129.947H431.29C431.659 129.947 431.96 129.642 431.96 129.267ZM458.088 84.2301V98.7601C458.088 99.1983 457.738 99.5528 457.306 99.5528H427.76C427.328 99.5528 426.979 99.1983 426.979 98.7601V84.2301C426.979 83.7919 427.328 83.4374 427.76 83.4374H457.306C457.738 83.4374 458.088 83.7919 458.088 84.2301ZM450.607 93.6591C450.607 93.2849 450.306 92.9796 449.937 92.9796H435.13C434.761 92.9796 434.46 93.2849 434.46 93.6591C434.46 94.0333 434.761 94.3386 435.13 94.3386H449.937C450.306 94.3386 450.607 94.0333 450.607 93.6591ZM450.607 89.3311C450.607 88.9569 450.306 88.6517 449.937 88.6517H435.13C434.761 88.6517 434.46 88.9569 434.46 89.3311C434.46 89.7053 434.761 90.0106 435.13 90.0106H449.937C450.306 90.0106 450.607 89.7053 450.607 89.3311ZM338.41 46.992V21.6841L319.443 36.8885L302.388 21.6841V46.992H338.41ZM580.756 55.7759L574.785 59.7543C575.624 61.4235 576.11 63.3092 576.11 65.3083C576.11 72.0833 570.692 77.5733 564.007 77.5733C557.322 77.5733 551.904 72.0833 551.904 65.3083C551.904 58.5332 557.322 53.0433 564.007 53.0433C567.755 53.0433 571.1 54.7715 573.318 57.4795L579.275 53.516C575.765 48.8532 570.241 45.83 564.007 45.83C553.395 45.83 544.787 54.5499 544.787 65.3083C544.787 76.0666 553.395 84.7865 564.007 84.7865C574.619 84.7865 583.222 76.0666 583.222 65.3083C583.222 61.842 582.324 58.5972 580.756 55.7759ZM563.269 64.1758L568.362 60.7834C567.235 59.6706 565.701 58.9813 564.007 58.9813C560.56 58.9813 557.764 61.8124 557.764 65.3083C557.764 68.8041 560.56 71.6353 564.007 71.6353C567.454 71.6353 570.25 68.8041 570.25 65.3083C570.25 64.5156 570.09 63.7622 569.823 63.0581L564.74 66.4457C564.517 66.5934 564.26 66.6672 564.007 66.6672C563.57 66.6672 563.143 66.4506 562.886 66.0567C562.483 65.4264 562.653 64.5845 563.269 64.1758ZM246.293 259.475H240.457C240.151 259.869 239.812 260.239 239.452 260.583C238.574 261.435 237.549 262.134 236.394 262.612L217.873 270.303C217.223 270.573 216.611 270.913 216.024 271.297C215.994 271.317 215.97 271.342 215.941 271.361C215.621 271.573 215.305 271.799 215.009 272.046V329.456C211.8 330.608 209.499 333.701 209.499 337.349H230.408C230.408 333.701 228.107 330.608 224.903 329.456V271.297H246.293C248.069 271.297 249.511 269.84 249.511 268.038V262.74C249.511 260.938 248.069 259.475 246.293 259.475ZM185.745 230.741H116.847C114.682 230.741 112.93 232.518 112.93 234.714V239.776C112.93 241.972 114.682 243.749 116.847 243.749H145.951V330.17C142.456 331.495 139.965 334.897 139.965 338.905H162.632C162.632 338.895 162.627 338.89 162.627 338.88H152.359C151.884 338.88 151.5 338.56 151.359 338.127C151.33 338.024 151.296 337.92 151.296 337.807V335.572C151.296 334.439 151.879 333.39 152.835 332.799L156.714 330.416L156.913 330.293C156.821 330.259 156.738 330.205 156.641 330.17V243.749H185.745C187.91 243.749 189.663 241.972 189.663 239.776V234.714C189.663 232.518 187.91 230.741 185.745 230.741ZM119.702 94.8703H173.055C172.963 94.1859 172.856 93.5064 172.73 92.8368H119.702C119.148 92.8368 118.697 93.2898 118.697 93.8511C118.697 94.4173 119.148 94.8703 119.702 94.8703ZM156.214 68.9075H119.809C118.779 69.5378 117.779 70.2172 116.823 70.9459H159.2C158.238 70.2172 157.243 69.5378 156.214 68.9075ZM138.009 135.471C138.271 135.471 138.528 135.457 138.79 135.452L138.737 114.866H170.011C170.302 114.24 170.574 113.6 170.831 112.955H137.727C137.174 112.955 136.727 113.384 136.727 113.91L136.781 135.442C137.188 135.452 137.596 135.471 138.009 135.471ZM53.1345 162.837C53.1636 162.946 53.3238 162.946 53.3481 162.832L60.4359 129.12L55.8871 131.946C53.9015 133.182 51.4014 133.192 49.4061 131.976L46.1437 129.991L44.3912 128.923L46.1437 135.708L53.1345 162.837ZM43.7504 126.431L43.7552 126.412H43.7455V126.417L43.7504 126.431ZM94.2876 133.497L93.5109 132.66L84.9957 140.745L84.1219 141.572L79.1944 146.249L72.1551 152.926L49.7168 174.221L56.7318 173.487C57.0085 173.458 57.2804 173.409 57.5425 173.33L62.47 171.316C62.737 171.208 63.0138 171.124 63.3002 171.065L66.4994 170.41C67.2325 170.257 67.7374 171.129 67.2519 171.705C66.6985 172.37 65.9314 173.103 64.9459 173.665C64.4168 173.965 63.9847 174.418 63.6352 174.92L62.8001 176.117C62.6011 176.407 62.7759 176.806 63.1206 176.85L69.2423 177.614L74.2523 173.266L76.5971 171.04L77.4273 170.253L78.7041 169.041L78.7138 169.031L77.8351 164.699L77.3788 162.429C77.3205 162.148 77.3448 161.858 77.4322 161.587C77.5098 161.35 77.6409 161.129 77.8205 160.942L78.1361 160.622L84.0782 154.6C84.6996 153.97 85.7045 153.96 86.3356 154.575L90.1029 158.224L94.5595 153.994L95.1663 153.418L104.502 144.556L103.842 143.842L94.2876 133.497ZM52.45 186.24L47.372 186.594L47.2069 188.209L46.1437 188.323L33.3953 189.711L31.2836 191.715L28.9873 193.896L6.25768 215.467L7.00044 216.275L16.5059 226.58L17.2438 227.378L24.0938 220.873L25.9871 219.081L32.5264 212.872L46.1437 199.948L52.3723 194.034L58.6834 188.047L55.256 186.678C54.3676 186.319 53.4063 186.171 52.45 186.24ZM399.264 150.538L392.307 139.691L391.583 138.563C391.491 138.421 391.307 138.376 391.161 138.465L371.058 150.72C370.83 150.858 370.543 150.843 370.334 150.681L362.989 144.945L357.508 140.666L343.808 130.336H343.799L325.38 127.918L325.375 127.913C321.652 130.676 318.52 133.861 315.836 137.367C313.156 140.863 311.175 144.851 309.855 149.071L303.131 170.607C302.583 172.36 302.306 174.187 302.306 176.023V181.08C302.306 184.093 303.053 187.062 304.486 189.706L313.438 206.27L312.87 215.103H357.508V165.688L362.446 169.155C364.601 170.666 367.237 171.291 369.83 170.907L373.422 170.371C373.83 170.307 374.233 170.223 374.626 170.11C375.845 169.775 376.995 169.214 378.019 168.455L399.943 152.148C400.074 152.05 400.108 151.862 400.021 151.72L399.264 150.538ZM483.492 172.867C483.196 172.66 483.177 172.232 483.453 172L488.332 167.973C488.512 167.82 488.764 167.81 488.959 167.938L492.546 170.321C492.469 169.893 492.604 169.42 493.027 169.12L493.532 168.761L488.099 165.107C487.779 164.891 487.352 164.891 487.031 165.107L478.4 171.72L494.202 182.749L494.381 182.872C494.527 182.833 494.692 182.833 494.857 182.897C495.813 183.251 497.042 183.96 498.139 185.378C498.377 185.688 498.707 185.92 499.09 185.994L502.168 185.876L502.304 185.861L495.702 181.301L483.492 172.867ZM516.407 188.825L517.863 186.24C518.116 185.792 517.985 185.206 517.553 184.92L504.576 176.191H504.571C504.086 176.176 503.591 176.235 503.115 176.373C502.702 176.486 502.299 176.545 501.916 176.56L510.13 182.025C510.397 182.202 510.45 182.577 510.242 182.823L508.13 185.329L508.722 185.851L511.897 188.357C512.606 188.913 513.499 189.169 514.387 189.066L516.397 188.84L516.407 188.825ZM494.08 171.346L498.663 174.393C498.755 174.256 498.877 174.128 499.042 174.039L500.362 173.354L496.945 171.055C495.906 171.346 494.935 171.4 494.08 171.346ZM564.279 194.088H556.157L554.618 195.91C553.438 197.308 551.778 198.205 549.967 198.436L532.398 200.563L531.529 200.666L518.635 245.526C518.087 247.437 517.684 249.387 517.412 251.351C517.281 252.297 517.169 253.242 517.101 254.192L516.159 267.476C516.111 268.126 516.611 268.683 517.252 268.698L519.902 268.771H519.917L539.666 269.303L542.899 269.387L545.365 269.456H545.37L564.764 269.978H564.784L567.682 270.056C568.308 270.071 568.823 269.574 568.838 268.944L569.284 251.351L569.876 227.954C570.056 220.696 569.236 213.448 567.439 206.422L564.279 194.088Z" fill="#F93262"/>
<mask id="mask2_6_173" style="mask-type:luminance" maskUnits="userSpaceOnUse" x="0" y="20" width="598" height="326">
<path d="M0.199036 20.4827H597.786V345.532H0.199036V20.4827Z" fill="white"/>
</mask>
<g mask="url(#mask2_6_173)">
<path d="M138.009 149.051C138.286 149.051 138.553 149.036 138.824 149.031C160.112 148.677 178.118 134.432 184.39 114.866C184.594 114.235 184.779 113.595 184.958 112.955C186.133 108.711 186.774 104.245 186.774 99.6266C186.774 98.0215 186.692 96.4361 186.546 94.8703C186.478 94.1859 186.395 93.5114 186.303 92.8368C185.201 84.7521 182.167 77.2926 177.686 70.9459C177.196 70.2517 176.691 69.5722 176.172 68.9075C167.229 57.519 153.452 50.2023 138.009 50.2023C122.571 50.2023 108.793 57.519 99.8511 68.9075C99.3268 69.5722 98.8219 70.2517 98.3315 70.9459C92.6224 79.0406 89.2484 88.9372 89.2484 99.6266C89.2484 110.257 92.5836 120.104 98.2393 128.174L93.5108 132.66L94.2876 133.497L103.842 143.842L104.502 144.556L109.575 139.74C117.284 145.373 126.668 148.78 136.815 149.026C137.213 149.036 137.611 149.051 138.009 149.051ZM102.647 99.6266C102.647 87.9082 108.221 77.4896 116.823 70.9459C117.779 70.2172 118.779 69.5378 119.809 68.9075C125.129 65.6579 131.358 63.7819 138.009 63.7819C144.665 63.7819 150.893 65.6579 156.214 68.9075C157.243 69.5378 158.238 70.2172 159.2 70.9459C166.093 76.1946 171.04 83.9347 172.73 92.8368C172.856 93.5065 172.963 94.1859 173.055 94.8703C173.259 96.4312 173.375 98.0117 173.375 99.6266C173.375 104.334 172.467 108.829 170.831 112.955C170.574 113.6 170.302 114.24 170.011 114.866C164.452 126.806 152.583 135.146 138.79 135.452C138.528 135.457 138.271 135.471 138.009 135.471C137.596 135.471 137.188 135.452 136.781 135.442C117.847 134.782 102.647 118.972 102.647 99.6266ZM597.49 48.1934C597.49 48.9418 596.888 49.5524 596.15 49.5524H590.106L580.756 55.776L574.784 59.7543L569.823 63.0581L564.74 66.4457C564.517 66.5934 564.26 66.6672 564.007 66.6672C563.57 66.6672 563.143 66.4506 562.886 66.0567C562.483 65.4265 562.653 64.5845 563.269 64.1758L568.362 60.7834L573.318 57.4796L579.275 53.516L588.654 47.2678L591.31 41.5809C591.625 40.9014 592.417 40.6158 593.091 40.9309C593.761 41.2559 594.048 42.0634 593.732 42.7429L591.824 46.8345H596.15C596.888 46.8345 597.49 47.445 597.49 48.1934ZM469.127 150.641C469.127 152.256 467.826 153.561 466.248 153.561C464.651 153.561 463.365 152.256 463.365 150.641C463.365 149.041 464.651 147.736 466.248 147.736C467.826 147.736 469.127 149.041 469.127 150.641ZM469.491 75.1311C467.894 75.1311 466.608 73.8263 466.608 72.2212C466.608 70.6062 467.894 69.3014 469.491 69.3014C471.069 69.3014 472.356 70.6062 472.356 72.2212C472.356 73.8263 471.069 75.1311 469.491 75.1311ZM494.605 48.1934H535.923C536.156 48.1934 536.345 48.0014 536.345 47.77V26.7752C536.345 26.5438 536.156 26.3518 535.923 26.3518H494.605C494.372 26.3518 494.187 26.5438 494.187 26.7752V47.77C494.187 48.0014 494.372 48.1934 494.605 48.1934ZM505.236 33.6586H525.296C525.665 33.6586 525.966 33.9639 525.966 34.3381C525.966 34.7172 525.665 35.0175 525.296 35.0175H505.236C504.863 35.0175 504.566 34.7172 504.566 34.3381C504.566 33.9639 504.863 33.6586 505.236 33.6586ZM505.236 39.5277H525.296C525.665 39.5277 525.966 39.828 525.966 40.2071C525.966 40.5813 525.665 40.8866 525.296 40.8866H505.236C504.863 40.8866 504.566 40.5813 504.566 40.2071C504.566 39.828 504.863 39.5277 505.236 39.5277ZM338.41 46.992H324.856V67.2482C324.856 67.4796 325.045 67.6717 325.273 67.6717H366.596C366.829 67.6717 367.014 67.4796 367.014 67.2482V46.2535C367.014 46.0221 366.829 45.83 366.596 45.83H338.41V46.992ZM355.965 60.3649H335.905C335.536 60.3649 335.235 60.0596 335.235 59.6854C335.235 59.3063 335.536 59.0059 335.905 59.0059H355.965C356.338 59.0059 356.635 59.3063 356.635 59.6854C356.635 60.0596 356.338 60.3649 355.965 60.3649ZM356.635 53.8163C356.635 54.1954 356.338 54.4958 355.965 54.4958H335.905C335.536 54.4958 335.235 54.1954 335.235 53.8163C335.235 53.4421 335.536 53.1368 335.905 53.1368H355.965C356.338 53.1368 356.635 53.4421 356.635 53.8163ZM487.497 214.143H457.228C456.995 214.143 456.806 214.33 456.806 214.566V229.835C456.806 230.066 456.995 230.258 457.228 230.258H487.497C487.73 230.258 487.915 230.066 487.915 229.835V214.566C487.915 214.33 487.73 214.143 487.497 214.143ZM479.764 225.044H464.962C464.588 225.044 464.292 224.738 464.292 224.364C464.292 223.99 464.588 223.685 464.962 223.685H479.764C480.133 223.685 480.434 223.99 480.434 224.364C480.434 224.738 480.133 225.044 479.764 225.044ZM479.764 220.716H464.962C464.588 220.716 464.292 220.411 464.292 220.036C464.292 219.657 464.588 219.357 464.962 219.357H479.764C480.133 219.357 480.434 219.657 480.434 220.036C480.434 220.411 480.133 220.716 479.764 220.716ZM319.443 36.8885L302.388 21.6841H338.41L319.443 36.8885ZM206.426 324.281C207.669 328.132 207.775 332.278 206.499 336.793C206.406 337.118 206.105 337.349 205.77 337.349H202.892C202.61 337.349 202.387 337.118 202.387 336.832L202.421 332.534C202.421 332.396 202.265 332.322 202.163 332.411L197.464 336.512C196.843 337.049 196.051 337.349 195.236 337.349H182.56V338.235C182.56 338.609 182.259 338.91 181.895 338.91H175.904C175.54 338.91 175.244 338.609 175.244 338.235V333.947C175.244 333.686 174.924 333.553 174.739 333.74L169.914 338.629C169.758 338.792 169.54 338.88 169.317 338.88H152.359C151.884 338.88 151.5 338.56 151.359 338.127C151.33 338.024 151.296 337.92 151.296 337.807V335.572C151.296 334.439 151.879 333.39 152.835 332.799L156.714 330.416L156.913 330.293L157.753 329.781L157.767 329.766H167.025C168.7 329.766 170.36 329.387 171.87 328.649L182.551 323.444L182.56 323.439V330.825L184.832 329.077H192.842C194.425 329.077 195.949 328.496 197.139 327.438L204.848 320.589C205.494 321.79 206.018 323.016 206.426 324.281ZM177.56 230.741H135.509L120.988 197.259C120.901 197.052 121.047 196.826 121.27 196.826H128.639C128.761 196.826 128.872 196.895 128.921 197.008L140.844 223.557H157.277C157.544 223.744 157.864 223.857 158.214 223.857L163.112 223.818C163.695 223.872 164.248 224.059 164.744 224.364C166.564 225.497 171.671 228.151 176.337 225.708C176.973 225.374 177.725 225.344 178.405 225.585L179.031 225.817V230.741H177.56ZM240.943 240.13C242.676 243.675 243.195 247.442 242.904 251.351C242.812 252.646 242.627 253.951 242.37 255.275C242.064 256.831 241.389 258.259 240.457 259.475C240.151 259.869 239.812 260.239 239.452 260.583C238.574 261.435 237.549 262.134 236.394 262.612L217.873 270.303C217.223 270.573 216.611 270.913 216.024 271.297C215.994 271.317 215.97 271.342 215.941 271.361C215.621 271.573 215.305 271.799 215.009 272.046C214.523 272.444 214.062 272.873 213.645 273.35L203.795 284.655C203.469 285.03 202.945 285.158 202.489 284.97L201.668 284.66L200.969 284.399L193.77 281.686L183.123 277.678L176.497 275.187L175.803 274.926L170.778 273.035C170.453 272.902 170.225 272.622 170.123 272.297C170.069 272.139 170.04 271.972 170.059 271.795L170.428 268.776L170.589 267.432C170.904 264.837 172.356 262.553 174.497 261.174C174.511 261.164 174.526 261.149 174.545 261.14C174.55 261.135 174.56 261.135 174.569 261.13C174.87 260.938 175.186 260.765 175.516 260.613L191.736 251.351L211.402 240.13L211.295 238.919L210.382 228.737L210.378 228.732L221.941 220.189L212.698 208.313L208.844 211.523L208.839 211.528L208.644 209.406C208.615 209.037 208.625 208.672 208.63 208.308C208.64 207.619 208.693 206.934 208.834 206.27C209.047 205.25 209.411 204.266 209.921 203.345L216.494 191.454V191.449L223.097 188.608L224.781 187.88L227.825 186.57L229.903 185.674L225.636 178.987C229.155 173.576 225.553 168.185 221.941 171.198C220.922 172.842 217.563 173.906 214.611 172.503C213.834 172.133 212.921 172.069 212.208 172.547C210.839 173.453 208.232 175.033 205.853 175.078C205.809 175.078 205.766 175.078 205.717 175.073C205.547 175.073 205.382 175.068 205.222 175.048C204.416 175.014 203.673 174.674 203.062 174.137C201.848 173.074 201.503 171.282 202.032 169.745C202.037 169.726 202.047 169.711 202.052 169.691C202.285 169.017 202.571 168.386 202.882 167.781C204.537 164.526 207.261 162.207 211.154 160.917C213.494 160.144 216.014 159.913 218.441 160.336C223.063 161.149 226.767 163.758 228.704 167.781C228.995 168.386 229.243 169.022 229.447 169.691C229.573 170.1 229.719 170.499 229.811 170.927C230.204 172.774 230.923 174.689 232.442 175.782C239.472 180.834 242.414 184.906 238.845 193.813C241.472 197.953 242.821 202.926 242.559 208.032L240.943 240.13ZM36.1722 103.984C36.5363 103.575 36.8179 103.098 37.0121 102.581C38.619 98.2283 42.2503 95.6089 46.1437 94.6734C52.5519 93.1273 59.6737 96.1357 59.6786 103.457C59.6786 103.457 59.6786 103.457 59.6786 103.462C59.6786 103.472 59.6786 103.477 59.6786 103.487V103.492C59.4358 103.093 59.164 102.714 58.9018 102.325L49.8333 105.904C48.2604 106.52 47.3234 108.164 47.5807 109.853L48.1681 113.768L48.2458 114.275L46.5904 115.176L46.1437 114.506L46.1194 114.472C45.5709 113.664 44.6096 113.236 43.6533 113.388C40.4492 113.891 39.4297 117.111 41.59 119.642L41.5803 119.651C41.5803 119.651 41.5803 119.651 41.5755 119.647C40.6337 119.386 39.7161 118.982 38.8471 118.485C34.0847 115.737 31.0408 109.72 36.1722 103.984ZM94.5595 153.994L90.1077 158.224H90.1029L94.5595 153.994ZM101.055 164.669C101.987 166.314 102.269 168.258 101.846 170.105L101.138 173.217C100.783 174.753 99.885 176.102 98.6083 177.003L96.5013 178.49C95.3119 179.332 93.8701 179.731 92.4234 179.617L89.3892 179.376C88.6513 179.317 87.9862 178.908 87.593 178.268L84.4714 173.138C85.0297 173.123 85.5783 172.926 85.9958 172.522L93.4186 165.437C94.1031 164.787 94.5158 163.896 94.5692 162.946L95.0498 154.674L95.0595 154.689L96.6178 156.85L101.055 164.669ZM96.6761 338.206V340.495C96.6761 340.983 96.2829 341.382 95.7974 341.382H80.1216C79.942 341.382 79.7624 341.327 79.6119 341.219L73.4319 336.763C73.2717 336.645 73.0435 336.719 72.9804 336.906L72.1794 339.284C72.1066 339.496 71.9124 339.639 71.6891 339.639H67.7131C67.4266 339.639 67.1985 339.402 67.1985 339.112V327.964L66.378 328.053C66.2615 328.063 66.1596 327.979 66.145 327.861L57.6833 251.351L54.6346 223.773C54.6151 223.591 54.4161 223.488 54.2607 223.577L52.5665 224.566C52.5034 224.601 52.4548 224.665 52.4451 224.738L47.7749 251.351L34.3468 327.93C34.3323 328.009 34.2595 328.068 34.1769 328.058L33.1089 327.935C33.5216 331.908 33.5458 335.252 32.9002 337.497C32.9002 337.836 32.6283 338.112 32.2933 338.112H27.5454C27.2736 338.112 27.0357 337.935 26.9629 337.669L26.1376 334.789C26.1085 334.695 26.0065 334.661 25.9288 334.71L20.4333 338.555C20.1129 338.782 19.7294 338.905 19.3362 338.905H5.07312C4.8935 338.905 4.743 338.752 4.743 338.565V336.468C4.743 335.409 5.26731 334.424 6.14115 333.848L17.7487 326.182L16.8117 326.074C16.7244 326.064 16.6661 325.985 16.6758 325.896L31.0117 222.794L24.0938 220.873L25.9871 219.081L32.5263 212.872L46.1437 199.948L52.3723 194.034L58.6834 188.047L59.4213 188.342C60.198 188.653 61.0524 188.687 61.8486 188.446L67.1014 186.831C67.9849 186.56 68.7568 185.989 69.2811 185.221L71.9124 181.38C72.1842 180.981 72.3833 180.538 72.5095 180.07L74.2815 173.241L74.2523 173.266L76.5971 171.04L77.4273 170.253L77.2234 173.049C76.9515 176.708 77.2282 180.391 78.0438 183.97L85.7531 217.919C85.8113 218.185 85.6657 218.456 85.4132 218.549L78.3303 221.144L80.1313 251.351L84.5879 325.946C84.5976 326.059 84.5103 326.157 84.3986 326.172L83.4956 326.266L95.176 335.158C96.1227 335.877 96.6761 337.004 96.6761 338.206ZM7.02956 179.691C6.14601 177.84 6.16543 175.679 7.07325 173.842L22.7733 141.582C24.9579 137.086 28.6523 133.531 33.1914 131.542L36.0703 130.287L43.7455 126.412V126.417L43.7504 126.431L44.2795 128.859L44.3912 128.923L46.1437 135.708L53.1345 162.837C53.1636 162.946 53.3238 162.946 53.3481 162.833L60.4359 129.12L60.533 129.056L61.033 126.279L61.0573 126.289L75.4029 132.566C78.4856 133.915 81.2042 136.003 83.3209 138.647L84.9957 140.745L84.1219 141.572L79.1944 146.249L72.1551 152.926L49.7168 174.221L48.6099 174.339L48.508 175.373L47.372 186.594L47.2069 188.209L46.1437 188.323L33.3953 189.711L31.2835 191.715L28.9873 193.896L30.0019 190.08L17.4429 191.444C14.6902 191.745 12.0542 190.258 10.8502 187.732L7.02956 179.691ZM10.0346 232.011L1.21851 222.459C0.626234 221.809 0.655363 220.79 1.29618 220.179L6.25766 215.467L7.00043 216.275L16.5059 226.58L17.2438 227.378L12.2872 232.075C11.6415 232.69 10.6366 232.661 10.0346 232.011ZM345.241 100.493L345.236 100.483C341.862 92.9008 327.172 93.3932 322.933 102.768C322.589 103.531 322.011 104.152 321.341 104.654C316.025 108.622 316.812 118.622 326.157 124.487H326.167L334.424 122.266L336.337 123.886C336.512 124.034 336.701 124.157 336.9 124.27C337.556 124.649 338.313 124.826 339.08 124.762L343.168 124.418L345.629 124.211C346.396 124.147 347.032 123.571 347.192 122.808C347.527 121.237 347.717 119.863 347.784 118.209L338.629 118.224L337.696 114.777L336.352 109.804L345.813 105.481V105.486C345.813 105.481 345.813 105.481 345.813 105.481H345.818L345.813 105.451C346.09 103.536 345.852 101.882 345.241 100.493ZM332.492 111.567L332.546 120.68C326.006 118.332 327.172 110.956 332.492 111.567ZM373.781 337.832V340.244C373.781 340.771 373.359 341.194 372.844 341.194H355.63C355.363 341.194 355.11 341.076 354.931 340.874L353.139 338.836C352.955 338.624 352.629 338.624 352.445 338.831L350.6 340.884C350.425 341.081 350.173 341.194 349.911 341.194H342.906C342.459 341.194 342.066 340.879 341.973 340.436C341.347 337.349 341.405 334.262 342.143 331.175H340.731C340.488 331.175 340.289 330.983 340.279 330.736L336.793 251.351L335.784 228.392C335.769 228.052 335.517 227.767 335.182 227.722L334.468 227.624C334.07 227.57 333.711 227.86 333.677 228.264L332.016 251.351L326.317 330.86C326.303 331.037 326.157 331.175 325.982 331.175H324.773L333.225 335.311C334.313 335.847 335.007 336.96 335.007 338.186V340.244C335.007 340.771 334.585 341.194 334.07 341.194H317.846C317.559 341.194 317.292 341.066 317.117 340.845L315.549 338.885C315.365 338.654 315.015 338.649 314.826 338.88L313.18 340.855C313.006 341.071 312.743 341.194 312.467 341.194H306.67C306.175 341.194 305.758 340.801 305.728 340.303C305.539 337.118 305.753 334.045 306.67 331.175H306.146C305.957 331.175 305.801 331.012 305.816 330.815L310.656 251.351L312.87 215.103H357.508L359.081 251.351L362.514 330.697C362.523 330.958 362.319 331.175 362.062 331.175H361.552L371.684 334.823C372.941 335.276 373.781 336.482 373.781 337.832ZM502.013 170.518L504.557 170.779C504.406 170.991 504.265 171.203 504.115 171.41L500.362 173.35L496.945 171.055C496.949 171.055 496.949 171.055 496.954 171.055V171.05C497.28 170.967 497.61 170.853 497.945 170.706C497.983 170.691 498.022 170.686 498.061 170.666C498.304 170.563 498.566 170.509 498.823 170.45C499.1 170.385 499.382 170.361 499.668 170.351C499.848 170.346 500.032 170.321 500.212 170.336L502.013 170.518ZM494.381 182.872L494.202 182.749L478.4 171.72L487.031 165.107C487.352 164.891 487.779 164.891 488.099 165.107L493.532 168.761L498.435 165.285C499.056 164.841 499.751 164.531 500.474 164.329C500.906 164.211 501.338 164.127 501.785 164.098L503.309 164.004L506.139 163.832C507.023 163.783 507.902 163.93 508.732 164.231C515.519 152.35 519.427 138.568 519.427 123.851C519.427 79.2917 483.788 43.1663 439.824 43.1663C395.86 43.1663 360.222 79.2917 360.222 123.851C360.222 131.153 361.198 138.219 362.989 144.945L370.334 150.681C370.543 150.843 370.83 150.858 371.058 150.72L391.161 138.465C391.307 138.376 391.491 138.421 391.583 138.563L392.307 139.691L397.919 133.206C398.045 133.059 398.191 132.936 398.331 132.808L387.34 123.236C386.806 122.768 386.748 121.956 387.204 121.414L387.292 121.311C387.748 120.774 388.554 120.71 389.088 121.173L400.181 130.838V122.069C400.181 121.636 400.531 121.276 400.963 121.276H441.557C441.99 121.276 442.339 121.636 442.339 122.069V142.325C442.339 142.763 441.99 143.118 441.557 143.118H410.327L410.041 143.733C409.546 144.797 408.716 145.663 407.682 146.195L399.264 150.538L400.021 151.72C400.108 151.862 400.074 152.05 399.943 152.148L378.019 168.455C376.995 169.214 375.845 169.775 374.626 170.11C389.02 190.917 412.847 204.536 439.824 204.536C459.908 204.536 478.239 196.979 492.24 184.546L494.988 186.447L494.998 186.452L493.876 183.985C493.658 183.502 493.949 182.995 494.381 182.872ZM469.491 64.6977C473.535 64.6977 476.817 68.0262 476.817 72.1276C476.817 76.0223 472.729 83.1125 470.661 86.4458C470.113 87.3272 468.855 87.337 468.297 86.4606C466.219 83.1913 462.146 76.2537 462.146 72.1276C462.146 68.0262 465.428 64.6977 469.491 64.6977ZM405.555 98.1495C397.749 98.1495 391.418 91.7339 391.418 83.8215C391.418 75.9091 397.749 69.4935 405.555 69.4935C413.362 69.4935 419.692 75.9091 419.692 83.8215C419.692 91.7339 413.362 98.1495 405.555 98.1495ZM441.077 185.378C433.271 185.378 426.94 178.968 426.94 171.05C426.94 163.138 433.271 156.727 441.077 156.727C448.883 156.727 455.214 163.138 455.214 171.05C455.214 178.968 448.883 185.378 441.077 185.378ZM458.088 98.7601C458.088 99.1983 457.738 99.5528 457.306 99.5528H427.76C427.328 99.5528 426.979 99.1983 426.979 98.7601V84.2302C426.979 83.792 427.328 83.4374 427.76 83.4374H457.306C457.738 83.4374 458.088 83.792 458.088 84.2302V98.7601ZM467.574 164.62C466.952 165.624 465.525 165.629 464.899 164.635C462.777 161.272 458.903 154.575 458.903 150.563C458.903 146.446 462.2 143.118 466.248 143.118C470.292 143.118 473.589 146.446 473.589 150.563C473.589 154.364 469.686 161.198 467.574 164.62ZM469.486 102.96C469.486 95.0476 475.817 88.632 483.623 88.632C491.43 88.632 497.76 95.0476 497.76 102.96C497.76 110.872 491.43 117.288 483.623 117.288C475.817 117.288 469.486 110.872 469.486 102.96ZM510.13 182.025C510.397 182.202 510.45 182.577 510.242 182.823L508.13 185.329L505.848 183.31L503.212 181.277C502.799 180.972 502.207 181.252 502.178 181.769C502.11 182.818 502.576 183.65 502.887 184.088C503.091 184.364 503.222 184.679 503.299 185.009L503.464 185.708L502.304 185.861L495.702 181.301L483.492 172.867C483.196 172.66 483.177 172.232 483.453 172L488.332 167.973C488.512 167.82 488.764 167.81 488.959 167.938L492.546 170.321C492.634 170.809 492.998 171.242 493.58 171.311C493.736 171.331 493.915 171.336 494.08 171.346L498.663 174.393C498.348 174.876 498.449 175.58 499.017 175.871C499.377 176.053 499.789 176.225 500.246 176.348C500.755 176.496 501.314 176.584 501.916 176.56L510.13 182.025ZM568.604 147.397C569.964 149.937 570.26 152.921 569.76 155.767L568.056 165.353C567.954 165.939 567.799 166.511 567.624 167.077L564.279 194.088H556.157L554.618 195.91C553.438 197.308 551.778 198.205 549.967 198.436L532.398 200.563L531.529 200.666L523.019 201.695C522.66 201.75 522.339 201.503 522.271 201.154L522.14 200.474L521.155 195.324L519.844 188.446L519.839 188.451L519.553 186.934C519.485 186.55 519.723 186.186 520.101 186.117L521.378 185.871L512.63 179.987C512.45 179.869 512.392 179.637 512.484 179.445L512.994 178.416L513.004 178.391L517.412 169.455L517.737 168.8L518.033 168.199C518.062 168.135 518.121 168.096 518.179 168.057C518.276 167.988 518.397 167.943 518.519 167.978L527.136 170.435L527.65 166.909C527.84 165.609 528.189 164.349 528.641 163.123C528.718 162.906 528.777 162.685 528.864 162.473L530.398 158.726L535.093 149.455L535.398 148.854L540.384 139.002L540.777 138.903L553.672 135.604L555.458 135.146H555.463C559.594 137.948 563.114 140.951 566.119 144.127C566.328 144.349 566.551 144.556 566.755 144.777C566.915 144.95 567.046 145.142 567.197 145.324C567.731 145.974 568.216 146.658 568.604 147.397ZM564.988 325.394C567.75 330.938 567.347 336.546 566.556 343.868C566.502 344.301 566.464 344.735 566.41 345.168C566.381 345.399 566.192 345.577 565.968 345.577H560.565C560.327 345.577 560.123 345.375 560.123 345.129V340.092L555.982 345.399C555.905 345.508 555.769 345.577 555.638 345.577H535.617C535.214 345.577 534.894 345.252 534.894 344.843V342.765H522.422C521.524 342.765 520.796 342.027 520.796 341.116V337.305C520.796 336.807 521.019 336.335 521.398 336.025L526.034 332.199H534.398C536.811 332.199 539.112 331.14 540.709 329.294L547.904 320.938C548.225 321.618 548.695 322.233 549.283 322.706L549.817 323.139L549.831 323.149L549.953 324.651C550.157 327.078 549.137 329.427 547.249 330.924L540.777 336.029H547.394C549.725 336.029 551.963 335.148 553.691 333.558L564.454 323.617C564.531 324.227 564.706 324.838 564.988 325.394Z" fill="black"/>
</g>
</g>
<defs>
<clipPath id="clip0_6_173">
<rect width="604" height="346" fill="white"/>
</clipPath>
</defs>
</svg>
