<svg width="579" height="447" viewBox="0 0 579 447" fill="none" xmlns="http://www.w3.org/2000/svg">
<mask id="mask0_4_33" style="mask-type:luminance" maskUnits="userSpaceOnUse" x="215" y="1" width="220" height="424">
<path d="M215.196 1.34636H434.967V424.074H215.196V1.34636Z" fill="white"/>
</mask>
<g mask="url(#mask0_4_33)">
<path d="M423.811 400.736C427.405 408.404 427.441 423.642 427.441 423.642H387.665C387.526 424.311 409.303 399.312 409.303 399.312L417.43 394.387C417.442 394.387 423.014 398.727 423.811 400.736ZM434.342 139.187V11.8977C434.342 6.07576 429.289 1.34636 423.047 1.34636H227.252C221.022 1.34636 215.957 6.0643 215.957 11.8977V139.187C215.957 145.005 221.01 149.734 227.252 149.734H423.059C429.289 149.734 434.342 145.005 434.342 139.187Z" fill="#FDE2DD"/>
</g>
<path d="M248.035 411.819H238.96C238.96 411.819 239.827 323.102 248.808 306.786C248.808 306.786 245.48 239.096 255.169 223.395C264.853 207.706 320.941 222.36 321.403 223.395C321.869 224.431 353.322 412.086 353.322 412.086L344.88 411.819L331.749 419.646L316.906 411.819H310.676C305.913 387.778 295.166 347.724 295.926 341.149L287.799 411.819H276.01L261.027 422.282L248.035 411.819ZM366.869 48.9689V50.6231H375.491L350.002 65.8045L343.09 58.4736L304.503 84.9858L295.395 75.7714L269.837 91.6062L270.818 92.9852L295.117 77.9337L304.286 87.1976L342.836 60.7084L349.679 67.9668L376.476 52.006L373.087 58.8938L374.694 59.5853L379.906 48.9575H366.869V48.9689Z" fill="#F93262"/>
<path d="M392.174 119.91C392.174 120.514 391.643 121.01 390.993 121.01H380.765V127.596C380.765 128.204 380.233 128.7 379.583 128.7C378.937 128.7 378.406 128.204 378.406 127.596V121.01H362.524V127.596C362.524 128.204 361.988 128.7 361.343 128.7C360.697 128.7 360.165 128.204 360.165 127.596V121.01H344.279V127.596C344.279 128.204 343.748 128.7 343.102 128.7C342.456 128.7 341.925 128.204 341.925 127.596V121.01H326.039V127.596C326.039 128.204 325.507 128.7 324.861 128.7C324.215 128.7 323.684 128.204 323.684 127.596V121.01H307.798V127.596C307.798 128.204 307.266 128.7 306.621 128.7C305.975 128.7 305.439 128.204 305.439 127.596V121.01H289.557V127.596C289.557 128.204 289.026 128.7 288.38 128.7C287.73 128.7 287.198 128.204 287.198 127.596V121.01H271.317V127.596C271.317 128.204 270.785 128.7 270.139 128.7C269.489 128.7 268.958 128.204 268.958 127.596V121.01H250.705V103.957H243.653C243.007 103.957 242.476 103.46 242.476 102.857C242.476 102.253 243.007 101.756 243.653 101.756H250.705V86.9073H243.653C243.007 86.9073 242.476 86.4107 242.476 85.8071C242.476 85.1997 243.007 84.703 243.653 84.703H250.705V69.8539H243.653C243.007 69.8539 242.476 69.3573 242.476 68.7537C242.476 68.1501 243.007 67.6535 243.653 67.6535H250.705V52.8044H243.653C243.007 52.8044 242.476 52.3078 242.476 51.7004C242.476 51.0968 243.007 50.6001 243.653 50.6001H250.705V35.751H243.653C243.007 35.751 242.476 35.2544 242.476 34.6508C242.476 34.0472 243.007 33.5506 243.653 33.5506H250.705V22.8999C250.705 22.2963 251.236 21.7997 251.886 21.7997C252.532 21.7997 253.064 22.2963 253.064 22.8999V118.806H391.05C391.643 118.806 392.174 119.295 392.174 119.91ZM367.18 26.3686L366.555 27.912L375.029 30.9147L344.488 35.1131L315.684 69.9189L306.747 64.4866L269.628 109.985L271.039 110.99L307.164 66.7252L316.088 72.1537L345.461 36.6717L375.434 32.5459L368.153 37.9973L369.261 39.2924L380.311 31.0216L367.18 26.3686Z" fill="#7CD756"/>
<mask id="mask1_4_33" style="mask-type:luminance" maskUnits="userSpaceOnUse" x="236" y="73" width="94" height="373">
<path d="M236.127 73.9606H329.268V445.834H236.127V73.9606Z" fill="white"/>
</mask>
<g mask="url(#mask1_4_33)">
<path d="M287.754 426.114C290.215 427.401 292.758 428.36 295.047 429.063C302.492 431.352 307.696 437.701 308.145 445.013C308.158 445.196 308.158 445.295 308.158 445.295L244.442 445.681C244.442 438.262 245.922 426.45 246.985 418.944C246.985 418.944 253.088 415.444 260.59 416.04C268.091 416.632 276.3 422.951 276.3 422.951L287.754 426.114ZM327.89 147.824L318.284 137.261C315.475 134.163 314.155 130.125 314.641 126.087C315.115 122.164 313.844 118.267 311.232 115.169C300.39 102.307 305.717 93.7645 299.511 84.6266C296.078 78.755 289.406 74.7705 281.745 74.7705C273.675 74.7705 266.705 79.1867 263.455 85.5664C260.438 91.7895 260.07 98.1157 260.393 102.696C260.716 107.242 258.578 111.635 254.764 114.478L254.568 114.627C250.566 117.599 248.473 122.263 248.984 127.016L249.008 127.187C249.54 132.024 247.308 136.746 243.203 139.737C240.199 141.93 237.145 145.016 236.303 148.882H329.023L327.89 147.824Z" fill="#010101"/>
</g>
<path d="M246.985 418.944C247.573 414.764 248.035 411.914 248.035 411.914H276.01C277.199 418.802 282.297 423.264 287.754 426.103L286.078 427.291C279.918 431.646 270.912 429.98 267.269 423.619C267.212 423.524 267.155 423.425 267.11 423.329C265.618 420.663 262.695 418.944 259.47 418.944H246.985Z" fill="#F8B6AD"/>
<mask id="mask2_4_33" style="mask-type:luminance" maskUnits="userSpaceOnUse" x="238" y="216" width="74" height="230">
<path d="M238.22 216.744H311.477V445.834H238.22V216.744Z" fill="white"/>
</mask>
<g mask="url(#mask2_4_33)">
<mask id="mask3_4_33" style="mask-type:luminance" maskUnits="userSpaceOnUse" x="-615" y="-252" width="1809" height="951">
<path d="M1193.7 -251.703H-614.7V698.884H1193.7V-251.703Z" fill="black" fill-opacity="0.098"/>
</mask>
<g mask="url(#mask3_4_33)">
<mask id="mask4_4_33" style="mask-type:luminance" maskUnits="userSpaceOnUse" x="238" y="216" width="74" height="231">
<path d="M311.477 216.744H238.22V446.567H311.477V216.744Z" fill="white"/>
</mask>
<g mask="url(#mask4_4_33)">
<mask id="mask5_4_33" style="mask-type:luminance" maskUnits="userSpaceOnUse" x="238" y="217" width="73" height="229">
<path d="M238.764 217.722H310.431V445.834H238.764V217.722Z" fill="white"/>
</mask>
<g mask="url(#mask5_4_33)">
<path d="M295.894 342.918C295.894 342.563 295.894 342.226 295.926 341.97L295.894 342.918ZM295.035 429.063C292.75 428.36 290.203 427.401 287.742 426.114C282.289 423.276 277.187 418.814 275.997 411.926H287.787L295.914 341.97L309.821 222.261C292.75 218.559 262.094 214.303 255.169 225.416C245.48 240.945 248.808 307.952 248.808 307.952C239.827 324.107 238.96 411.914 238.96 411.914H248.035C248.035 411.914 247.573 414.764 246.985 418.944C245.922 426.45 244.442 438.262 244.442 445.681L308.158 445.295C308.158 445.295 308.158 445.196 308.145 445.013C307.683 437.701 302.492 431.352 295.035 429.063Z" fill="#010101"/>
</g>
</g>
</g>
</g>
<mask id="mask6_4_33" style="mask-type:luminance" maskUnits="userSpaceOnUse" x="123" y="125" width="242" height="321">
<path d="M123.102 125.793H364.85V445.834H123.102V125.793Z" fill="white"/>
</mask>
<g mask="url(#mask6_4_33)">
<path d="M363.194 175.708L363.885 181.335L358.824 186.011C348.339 195.687 330.813 194.194 322.813 182.641C322.584 182.305 322.388 182.003 322.237 181.721C321.799 183.6 321.415 186.03 321.415 188.884C321.415 195.825 321.415 225.428 321.415 225.428H261.375V210.277C247.537 207.652 238.048 195.63 239.737 182.531C241.495 168.851 245.121 154.173 248.011 143.817C250.349 135.428 257.744 129.109 266.902 127.642L271.108 126.97C273.802 126.496 278.646 132.899 279.975 130.828L295.489 127.069L301.139 125.988L306.527 127.382C315.291 129.64 323.034 134.511 328.573 141.246L346.56 163.136C346.56 163.136 347.668 162.662 349.401 161.905L363.194 175.708ZM149.523 404.82L132.868 416.342C132.868 416.342 123.356 434.289 123.458 442.701C123.458 445.769 157.454 445.769 157.454 445.769H169.685C169.685 445.769 169.975 437.701 162.494 425.369L149.523 404.82ZM189.765 410.566L177.628 420.013C177.628 420.013 172.436 435.638 172.436 445.78H236.949C234.868 438.824 229.783 433.017 222.939 429.678C218.258 427.401 213.496 424.701 212.061 422.615L189.765 410.566Z" fill="#7CD756"/>
</g>
<path d="M409.315 399.312L410.239 361.266L434.342 359.28L423.811 400.736C418.84 396.828 409.315 399.312 409.315 399.312ZM177.628 420.002C180.171 417.465 189.36 416.915 192.365 419.463C195.382 422.011 207.335 429.648 207.335 429.648C210.651 426.84 212.061 422.607 212.061 422.607C212.061 422.607 209.784 419.245 210.365 417.908C210.941 416.567 219.922 371.233 219.922 371.233L179.14 371.287C176.389 384.355 180.583 412.151 177.628 420.002ZM132.868 416.342C136.486 413.446 143.26 413.125 149.502 415.857C155.745 418.588 162.494 425.369 162.494 425.369C162.494 425.369 160.932 419.734 161.779 418.134C162.609 416.537 176.307 371.168 176.307 371.168L134.925 371.287C132.357 385.941 139.466 397.226 132.868 416.342Z" fill="#F8B6AD"/>
<mask id="mask7_4_33" style="mask-type:luminance" maskUnits="userSpaceOnUse" x="172" y="200" width="301" height="246">
<path d="M172.289 200.119H472.642V445.834H172.289V200.119Z" fill="white"/>
</mask>
<g mask="url(#mask7_4_33)">
<path d="M316.873 230.081L278.262 223.808L268.578 266.69L211.644 274.8L194.757 272.198L175.96 266.678C174.018 266.678 172.448 265.211 172.448 263.397C172.448 261.582 174.018 260.111 175.96 260.111H192.169L202.238 215.587C202.757 213.299 204.919 211.656 207.425 211.656H265.377L265.524 210.88C267.977 211.289 269.767 211.526 270.936 211.656H272.682L284.84 200.944L320.201 212.79L316.873 230.081ZM401.699 300.273C389.272 300.273 379.191 309.69 379.191 321.299L380.164 322.151L402.693 355.738L445.707 357.637L472.082 300.284H401.699V300.273ZM369.539 429.063C367.041 428.295 364.163 427.401 361.273 426.114L348.788 422.962C348.788 422.962 338.523 416.644 330.813 416.052C323.116 415.456 318.157 418.955 318.157 418.955C319.555 426.462 321.946 438.274 324.375 445.693L384.464 445.303C384.464 445.303 384.403 445.207 384.358 445.024C382.453 438.155 379.55 432.15 369.539 429.063Z" fill="#010101"/>
</g>
<mask id="mask8_4_33" style="mask-type:luminance" maskUnits="userSpaceOnUse" x="0" y="210" width="579" height="236">
<path d="M0.658356 210.876H578.342V445.834H0.658356V210.876Z" fill="white"/>
</mask>
<g mask="url(#mask8_4_33)">
<path d="M578.203 277.974V280.523C578.203 286.753 572.79 291.807 566.123 291.807H549.129V445.811H533.5V291.796H45.3729V445.803H29.7567V291.796H12.7629C6.09128 291.796 0.682861 286.753 0.682861 280.511V277.963C0.682861 271.732 6.09128 266.678 12.7629 266.678H268.578L274.403 264.29L286.912 266.678H362.336L375.978 264.29L377.817 265.276L367.041 217.631C366.35 214.552 368.856 211.648 372.233 211.648H439.276C441.786 211.648 443.949 213.287 444.468 215.579L454.537 260.1H470.741C472.683 260.1 474.257 261.571 474.257 263.385C474.257 265.2 472.683 266.667 470.741 266.667H566.123C572.79 266.69 578.203 271.744 578.203 277.974ZM196.559 300.716H176.957C176.957 300.716 138.657 293.901 137.986 293.492C137.316 293.072 130.89 357.637 130.89 357.637L130.624 412.388H167.719L177.628 371.168C177.37 375.802 176.851 403.793 176.667 412.151C176.667 412.151 213.067 412.69 213.148 412.151C213.206 411.819 221.934 369.346 228.593 336.947C232.464 318.148 217.044 300.716 196.559 300.716ZM272.347 221.882C272.935 219.269 270.81 216.821 267.952 216.821H211.149C209.024 216.821 207.196 218.211 206.755 220.144L198.223 257.865L262.961 263.439L272.347 221.882Z" fill="#FDE2DD"/>
</g>
<mask id="mask9_4_33" style="mask-type:luminance" maskUnits="userSpaceOnUse" x="122" y="355" width="315" height="91">
<path d="M122.056 355.616H436.014V445.834H122.056V355.616Z" fill="white"/>
</mask>
<g mask="url(#mask9_4_33)">
<mask id="mask10_4_33" style="mask-type:luminance" maskUnits="userSpaceOnUse" x="-615" y="-252" width="1809" height="951">
<path d="M1193.7 -251.703H-614.7V698.884H1193.7V-251.703Z" fill="black" fill-opacity="0.098"/>
</mask>
<g mask="url(#mask10_4_33)">
<mask id="mask11_4_33" style="mask-type:luminance" maskUnits="userSpaceOnUse" x="122" y="355" width="315" height="92">
<path d="M436.014 355.616H122.056V446.567H436.014V355.616Z" fill="white"/>
</mask>
<g mask="url(#mask11_4_33)">
<mask id="mask12_4_33" style="mask-type:luminance" maskUnits="userSpaceOnUse" x="123" y="357" width="312" height="89">
<path d="M123.102 357.572H434.967V445.834H123.102V357.572Z" fill="white"/>
</mask>
<g mask="url(#mask12_4_33)">
<path d="M423.811 400.736C427.405 408.404 427.441 423.642 427.441 423.642H387.665C387.526 424.311 409.303 399.312 409.303 399.312L410.227 361.266L434.33 359.28L423.811 400.736ZM163.696 412.388H167.718L177.628 371.168C178.098 367.543 177.628 360.911 177.628 360.911L130.877 357.637L130.612 412.388H134.07C133.735 413.675 133.343 414.993 132.868 416.353C132.868 416.353 123.356 434.301 123.458 442.713C123.458 445.78 157.454 445.78 157.454 445.78H169.685C169.685 445.78 169.975 437.712 162.494 425.381C162.494 425.381 160.932 419.742 161.779 418.145C161.95 417.809 162.67 415.628 163.696 412.388Z" fill="#010101"/>
</g>
</g>
</g>
</g>
<path d="M544.342 287.109L467.438 298.264C467.438 298.264 455.865 254.862 455.751 254.476C455.739 254.442 455.669 254.496 455.542 254.637C448.18 262.533 437.232 266.701 426.019 266.701H418.828C418.808 263.102 414.172 259.141 414.147 253.827C414.123 249.063 418.726 242.951 418.738 239.52C420.782 238.764 423.059 238.038 425.581 237.347L446.745 197.628C450.755 190.102 458.236 184.712 467.054 183.02L488.013 178.978C488.013 178.978 518.138 181.484 518.51 181.259C518.669 181.159 523.665 182.909 529.143 184.876C537.985 188.062 543.614 196.203 543.083 205.047C541.856 225.34 538.365 246.634 538.365 246.634L544.342 287.109ZM415.337 49.8552V49.7253C415.337 48.1705 413.996 46.9175 412.332 46.9175H390.347C388.683 46.9175 387.342 48.1705 387.342 49.7253V49.8552C387.342 51.41 388.683 52.6631 390.347 52.6631H412.332C413.984 52.6631 415.337 51.41 415.337 49.8552ZM296.123 122.89L301.13 125.988L304.711 132.414H298.923L304.066 137.024L298.449 148.894L276.864 140.978L277.502 134.713L271.374 137.941V126.905C273.941 126.378 276.067 124.888 277.351 122.89H296.123ZM96.3053 265.383L99.7964 245.556L93.7012 206.063C91.5755 192.307 102.801 179.899 117.677 179.539L126.544 179.337L131.666 175.158L150.312 170.306L158.055 175.158L160.818 179.834H166.263C176.446 179.834 185.857 184.918 190.942 193.158L217.519 236.281L221.402 237.24C221.402 237.24 229.758 254.087 229.484 254.194L221.3 266.667H196.686L184.017 248.654L176.966 300.697C176.966 300.697 126.139 300.491 126.348 300.697C126.556 300.922 96.3053 265.383 96.3053 265.383Z" fill="#F93262"/>
<mask id="mask13_4_33" style="mask-type:luminance" maskUnits="userSpaceOnUse" x="352" y="126" width="186" height="320">
<path d="M352.292 126.771H537.527V445.834H352.292V126.771Z" fill="white"/>
</mask>
<g mask="url(#mask13_4_33)">
<path d="M374.915 424.04C374.915 424.04 404.598 415.123 408.183 422.779C411.776 430.446 411.813 445.681 411.813 445.681H352.443C352.443 445.681 352.463 445.112 352.672 444.061C353.772 438.782 357.553 434.324 362.72 431.947C367.066 429.95 370.614 427.604 373.365 425.411C373.921 424.979 374.44 424.529 374.915 424.04ZM536.84 201.918C535.348 196.409 532.887 191.581 530.389 187.696C524.646 178.752 520.991 168.763 520.047 158.376L518.91 145.956C518.011 136.085 509.643 128.246 499.075 127.382C488.557 126.519 479.032 132.78 476.187 142.056C473.991 152.966 478.938 161.787 478.938 161.787L486.104 179.184C492.163 185.751 495.355 194.251 494.824 202.9C494.824 202.984 494.812 203.072 494.812 203.16C494.546 207.221 497.968 210.651 502.325 210.651H529.547C534.424 210.651 538.042 206.346 536.84 201.918Z" fill="#FDE2DD"/>
</g>
<path d="M416.829 354.508L408.183 422.779C400.832 419.108 391.778 420.284 385.78 425.705L380.196 430.748L374.915 424.051C378.508 420.445 380.29 415.563 379.71 410.608C378.021 396.297 374.465 364.777 372.405 346.536C371.399 337.638 373.803 328.707 379.191 321.311L416.829 354.508Z" fill="#F8B6AD"/>
<path d="M412.332 32.8897H390.347C388.683 32.8897 387.342 31.6367 387.342 30.0819V29.952C387.342 28.3972 388.683 27.1441 390.347 27.1441H412.332C413.996 27.1441 415.337 28.3972 415.337 29.952V30.0819C415.337 31.6367 413.984 32.8897 412.332 32.8897ZM394.382 357.412C394.382 360.468 397.027 362.939 400.297 362.939H475.022L482.682 367.757L495.666 362.939H516.368C530.864 363.069 543.929 354.799 549.174 342.184L574.503 281.42C578.305 272.294 571.163 262.434 560.677 262.346L501.042 261.842C488.43 261.731 477.053 268.913 472.454 279.885L449.876 333.73C445.29 344.667 433.994 351.872 421.407 351.872H400.297C397.039 351.884 394.382 354.355 394.382 357.412ZM215.646 357.412C215.646 354.355 212.997 351.884 209.727 351.884H188.62C176.042 351.884 164.738 344.679 160.148 333.742L137.574 279.896C132.971 268.924 121.598 261.742 108.986 261.849L49.3505 262.357C38.8648 262.445 31.719 272.305 35.5249 281.428L60.85 342.196C66.1113 354.81 79.1725 363.069 93.6562 362.951H114.362L127.341 367.768L135.006 362.951H209.727C212.997 362.951 215.646 360.468 215.646 357.412Z" fill="#7CD756"/>
<mask id="mask14_4_33" style="mask-type:luminance" maskUnits="userSpaceOnUse" x="93" y="68" width="424" height="378">
<path d="M93.7993 68.0928H516.597V445.834H93.7993V68.0928Z" fill="white"/>
</mask>
<g mask="url(#mask14_4_33)">
<path d="M376.141 91.736L334.443 101.195L320.074 86.2044L299.454 99.747L269.673 69.5522L270.981 68.429L299.72 97.5657L320.352 84.0116L335.057 99.3573L374.694 90.3608L367.491 88.7983L367.896 87.1862L380.127 89.845L372.638 98.2877L371.272 97.2295L376.141 91.736ZM412.332 87.4689H390.347C388.683 87.4689 387.342 88.7219 387.342 90.2767V90.4066C387.342 91.9614 388.683 93.2145 390.347 93.2145H412.332C413.996 93.2145 415.337 91.9614 415.337 90.4066V90.2767C415.337 88.7334 413.984 87.4689 412.332 87.4689ZM326.374 175.016C326.374 175.016 285.858 169.099 275.985 167.758L272.772 184.876C275.294 185.686 278.033 186.473 279.779 187.294C282.088 188.376 289.5 202.64 301.408 203.255C313.313 203.87 323.811 193.827 323.811 193.827L324.191 191L326.967 190.752L328.238 182.034L325.634 180.426L326.374 175.016ZM277.604 258.006C272.473 258.006 268.312 261.895 268.312 266.69H276.194V279.854C276.194 288.297 268.843 295.177 259.793 295.177C250.754 295.177 243.387 288.308 243.387 279.854V265.165H241.02V279.865C241.02 289.531 249.434 297.392 259.78 297.392C270.127 297.392 278.54 289.531 278.54 279.865V266.701H286.888C286.9 261.895 282.738 258.006 277.604 258.006ZM502.117 439.248C497.931 437.216 493.434 436.008 488.868 435.584V368.922C491.934 368.028 494.464 365.866 495.666 362.974H474.915C476.338 366.385 479.608 368.773 483.422 369.281V435.454C478.28 435.703 473.17 436.956 468.464 439.248L454.373 445.78H516.22L502.117 439.248ZM405.374 279.854C405.374 288.297 398.02 295.177 388.969 295.177C379.918 295.177 372.568 288.308 372.568 279.854V266.69H380.45C380.45 262.014 376.395 258.224 371.387 258.224C366.383 258.224 362.324 262.014 362.324 266.69H370.209V279.854C370.209 289.519 378.627 297.381 388.969 297.381C399.316 297.381 407.733 289.519 407.733 279.854V265.165H405.362V279.854H405.374ZM142.52 125.839C142.034 125.839 141.547 125.847 141.085 125.869C126.323 126.584 116.578 140.665 121.275 153.753C125.4 165.275 132.545 168.893 132.545 168.614L139.34 173.622C139.34 173.622 154.612 173.97 158.643 168.312C162.678 162.65 165.213 142.048 165.213 142.048C165.752 139.194 164.493 132.456 164.493 132.456C164.493 132.456 153.893 125.839 142.52 125.839ZM126.601 435.454V369.281C130.403 368.773 133.686 366.397 135.109 362.974H114.362C115.564 365.866 118.094 368.028 121.156 368.922V435.584C116.59 436.008 112.093 437.216 107.911 439.248L93.8197 445.78H155.663L141.572 439.248C136.854 436.956 131.756 435.703 126.601 435.454Z" fill="#010101"/>
</g>
<path d="M318.169 418.944C317.392 414.764 316.918 411.914 316.918 411.914H344.892C348.351 418.802 354.904 423.264 361.285 426.103L359.989 427.291C355.251 431.646 345.702 429.98 339.97 423.619C339.876 423.524 339.795 423.425 339.705 423.329C337.334 420.663 333.855 418.944 330.629 418.944H318.169ZM387.027 164.767C389.86 163.689 392.162 161.581 393.188 158.895C393.307 158.582 393.409 158.288 393.454 158.02C393.85 156.194 392.182 155.426 392.182 155.426C394.047 152.015 391.189 150.158 391.189 150.158C392.346 147.045 389.779 145.784 389.779 145.784L396.888 137.834C397.64 136.994 397.685 135.794 397.006 134.908C396.185 133.838 394.59 133.59 393.446 134.347L382.796 141.387L380.127 140.99C378.406 140.73 376.681 141.387 375.667 142.705C373.365 145.643 369.367 150.685 368.096 151.725C366.706 152.855 354.777 158.968 349.414 161.917L363.898 181.335L378.185 168.148L387.027 164.767ZM278.691 107.437V118.409C278.691 120.04 278.205 121.572 277.363 122.89L295.857 142.556V115.926L297.533 115.742C301.801 115.288 304.805 111.616 304.168 107.651L301.384 90.2003C300.885 87.4039 298.216 85.4174 295.186 85.5893L286.61 86.0974L286.704 91.95C286.761 95.4607 283.732 98.3335 279.975 98.3335C279.202 97.6726 278.09 97.3479 276.913 97.5962C275.176 97.9553 274.15 99.5407 274.301 101.195C274.636 104.889 278.691 107.437 278.691 107.437ZM324.146 192.845C323.279 192.574 322.376 192.307 321.554 192.07C319.232 191.386 316.771 191.214 314.363 191.55C310.377 192.1 304.483 192.952 304.25 193.235C303.996 193.548 290.379 189.636 279.779 187.306L272.494 211.82C281.905 212.152 290.943 211.335 302.434 211.667C302.434 211.667 306.216 214.574 313.554 216.148C314.69 216.389 318.713 215.675 321.403 215.136C322.838 214.853 323.798 213.6 323.635 212.24C324.824 211.572 327.081 210.556 325.033 207.305C325.38 207.404 328.872 205.36 326.386 202.415C326.386 202.415 329.566 201.009 327.093 197.888C327.093 197.888 329.047 197.598 329.047 194.885C329.047 194.476 326.689 193.632 324.146 192.845ZM491.251 152.24C490.07 151.572 488.614 151.625 487.515 152.317L484.776 152.175C479.24 151.896 475.206 147.144 476.187 142.048C475.958 142.793 475.77 143.557 475.635 144.348C474.58 150.307 473.448 156.649 472.569 161.638C471.633 166.895 475.169 171.949 480.708 173.267L483.099 173.84L486.104 179.173C486.104 179.173 484.023 173.255 485.029 163.288C485.029 163.288 489.91 161.527 492.58 156.473C493.352 154.953 492.788 153.115 491.251 152.24ZM418.746 239.509C404.389 244.765 400.681 251.172 394.079 253.816L389.317 252.219C383.226 250.167 376.395 251.245 371.436 255.156C368.578 257.414 366.51 259.389 366.51 259.389L366.902 259.324C371.191 258.621 375.63 259.767 378.774 262.587C381.631 265.146 388.082 268.027 392.358 265.165C392.358 265.165 398.911 266.69 412.692 266.69H418.84C418.783 259.874 418.701 246.786 418.746 239.509ZM276.647 254.358C271.353 250.186 264.056 249.033 257.536 251.225L252.45 252.929C243.551 248.2 236.732 242.878 221.378 237.263C221.427 245.048 221.333 259.412 221.275 266.69H232.558C247.283 266.69 254.29 265.058 254.29 265.058C258.856 268.115 265.745 265.028 268.798 262.293C272.151 259.29 276.901 258.06 281.479 258.816L281.905 258.881C281.905 258.881 279.697 256.765 276.647 254.358ZM165.744 144.348C165.605 143.557 165.417 142.793 165.188 142.048C161.615 151.778 153.86 152.317 153.86 152.317C152.761 151.637 151.305 151.572 150.124 152.24C148.587 153.115 148.023 154.953 148.807 156.462C151.465 161.516 156.358 163.277 156.358 163.277L151.456 168.602H132.533L131.666 175.146H158.054L158.275 173.817L160.667 173.244C166.206 171.926 169.742 166.883 168.806 161.615C167.927 156.649 166.795 150.307 165.744 144.348Z" fill="#F8B6AD"/>
</svg>
